<svg width="34" height="34" viewBox="0 0 34 34" fill="none" xmlns="http://www.w3.org/2000/svg">
<rect width="34" height="34" rx="17" fill="white"/>
<g clip-path="url(#clip0_554_1776)">
<path d="M23.438 14V15.6525H19.9337V18.3667H23.4387V19.9999H20.1566C19.4099 19.9999 18.7283 19.8887 18.3553 19.331C18.1391 19.0166 18.0801 18.6623 18.0801 18.2166V15.836C18.0801 15.2457 18.1721 14.7801 18.578 14.3935C18.9118 14.0722 19.4036 14 19.9601 14H23.438Z" fill="black"/>
<path d="M29.6458 14V15.6525H26.1415V18.3667H29.6465V19.9999H26.3644C25.6177 19.9999 24.9362 19.8887 24.5633 19.331C24.3469 19.0166 24.2881 18.6623 24.2881 18.2166V15.836C24.2881 15.2457 24.3797 14.7801 24.7856 14.3935C25.1197 14.0722 25.6112 14 26.1679 14H29.6458Z" fill="black"/>
<path d="M9.25631 17.5142C9.25631 17.788 9.22773 18.0151 9.06641 18.1913C8.93402 18.3362 8.73136 18.3514 8.5104 18.3514H6.83928V15.6212H8.43201C8.72845 15.6212 9.00419 15.663 9.15498 15.9162C9.23825 16.0593 9.25631 16.2294 9.25631 16.432V17.5142ZM10.8353 14.6484C10.4555 14.0918 9.76063 14 9.01429 14H5V20H9.21061C9.76765 20 10.2783 19.967 10.6125 19.6461C11.0184 19.2595 11.0906 18.7618 11.0906 18.1594V15.7813C11.0906 15.3364 11.0448 14.9627 10.8353 14.6484Z" fill="black"/>
<path d="M13.6401 15.6276V19.9977L15.5511 19.9997V15.6291H17.3964V15.6272H17.4102V14.0029H17.3832V14H11.7627V15.6276H13.6401Z" fill="black"/>
</g>
<defs>
<clipPath id="clip0_554_1776">
<rect width="24.647" height="6" fill="white" transform="translate(5 14)"/>
</clipPath>
</defs>
</svg>
