<svg width="114" height="131" viewBox="0 0 114 131" fill="none" xmlns="http://www.w3.org/2000/svg">
<g clip-path="url(#clip0_1064_1861)">
<path fill-rule="evenodd" clip-rule="evenodd" d="M0 32.75L56.72 0L113.44 32.75V98.24L56.72 130.99L0 98.24V32.75ZM85.08 49.12V81.87L56.72 98.24L28.36 81.87V49.12L56.72 32.75L85.08 49.12Z" fill="white"/>
<path fill-rule="evenodd" clip-rule="evenodd" d="M0 32.75L56.72 0L113.44 32.75L85.08 49.12L56.72 32.75L28.36 49.12L0 65.49V32.75Z" fill="url(#paint0_linear_1064_1861)"/>
<path fill-rule="evenodd" clip-rule="evenodd" d="M113.277 98.3338L113.44 98.24V65.61L56.72 98.35V98.24L28.46 81.92L0.101929 98.2989L21.1341 110.443L56.72 130.98L92.4093 110.383L113.277 98.3338Z" fill="url(#paint1_linear_1064_1861)"/>
</g>
<defs>
<linearGradient id="paint0_linear_1064_1861" x1="70.9" y1="8.18" x2="28.36" y2="81.87" gradientUnits="userSpaceOnUse">
<stop stop-color="#7790E2"/>
<stop offset="1" stop-color="#486DDC"/>
</linearGradient>
<linearGradient id="paint1_linear_1064_1861" x1="85.08" y1="49.24" x2="42.59" y2="122.84" gradientUnits="userSpaceOnUse">
<stop stop-color="#7790E2"/>
<stop offset="1" stop-color="#486DDC"/>
</linearGradient>
<clipPath id="clip0_1064_1861">
<rect width="113.44" height="130.99" fill="white"/>
</clipPath>
</defs>
</svg>
