<svg width="34" height="34" viewBox="0 0 34 34" fill="none" xmlns="http://www.w3.org/2000/svg">
<rect width="34" height="34" rx="17" fill="#ACF9E9"/>
<path d="M16.9136 5C14.5443 5 12.2447 5.69685 10.2935 7.02086C8.34236 8.34487 6.80929 10.2264 5.90339 12.3866C4.99749 14.6165 4.78843 16.9858 5.20654 19.3551C5.62465 21.7243 6.73961 23.8149 8.41204 25.4873C10.0845 27.1597 12.2447 28.3444 14.5443 28.7625C16.8439 29.2503 19.2829 28.9715 21.4431 28.0656C23.6033 27.1597 25.4848 25.6267 26.8088 23.6058C28.1328 21.6547 28.8297 19.2854 28.8297 16.9161C28.8297 13.7106 27.5753 10.6445 25.3454 8.41455C23.1155 6.25433 20.0494 5 16.9136 5ZM5.76402 17.4736H9.45731C9.45731 19.146 9.73605 20.8184 10.2238 22.4212H7.15771C6.3215 20.8881 5.8337 19.146 5.76402 17.4736ZM17.3317 10.7838V5.9059C19.4222 6.11496 21.234 7.99644 22.349 10.7838H17.3317ZM22.6277 11.62C23.1155 13.2228 23.3943 14.8952 23.4639 16.5677H17.3317V11.62H22.6277ZM16.4258 5.9059V10.7838H11.4085C12.5234 7.99644 14.4049 6.11496 16.4258 5.9059ZM16.4258 11.62V16.5677H10.2935C10.2935 14.8952 10.5723 13.2228 11.1297 11.62H16.4258ZM9.45731 16.5677H5.76402C5.8337 14.8255 6.3215 13.1531 7.15771 11.62H10.2238C9.73605 13.2228 9.527 14.8952 9.45731 16.5677ZM10.2935 17.4736H16.4258V22.4212H11.1297C10.642 20.8184 10.3632 19.146 10.2935 17.4736ZM16.4258 23.2574V28.1353C14.3352 27.9263 12.5234 26.0448 11.4085 23.2574H16.4258ZM17.3317 28.1353V23.1877H22.349C21.234 26.0448 19.4222 27.9263 17.3317 28.1353ZM17.3317 22.3515V17.4039H23.4639C23.4639 19.0763 23.1852 20.7487 22.6277 22.3515H17.3317ZM24.3002 17.4736H27.9934C27.9238 19.2157 27.436 20.8881 26.5998 22.4212H23.5336C24.0214 20.7487 24.3002 19.146 24.3002 17.4736ZM24.3002 16.5677C24.3002 14.8952 24.0214 13.2228 23.5336 11.62H26.5998C27.436 13.1531 27.9238 14.8255 27.9934 16.5677H24.3002ZM26.112 10.7838H23.2549C22.9761 10.0173 22.6277 9.32045 22.2096 8.62361C21.7218 7.78739 21.1643 7.09054 20.4675 6.46338C22.7671 7.22991 24.7183 8.76298 26.112 10.7838ZM13.29 6.46338C12.6628 7.09054 12.0356 7.78739 11.5479 8.62361C11.1297 9.32045 10.7813 10.0173 10.5026 10.7838H7.64551C9.0392 8.76298 10.9904 7.22991 13.29 6.46338ZM7.64551 23.2574H10.5026C10.7813 24.0239 11.1297 24.7208 11.5479 25.4176C12.0356 26.1842 12.5931 26.9507 13.29 27.5779C10.9904 26.8113 9.0392 25.2783 7.64551 23.2574ZM20.4675 27.5779C21.1643 26.9507 21.7218 26.2538 22.2096 25.4176C22.6277 24.7208 22.9761 23.9542 23.2549 23.2574H26.112C24.7183 25.2783 22.7671 26.8113 20.4675 27.5779Z" fill="#333D3E"/>
</svg>
