<svg width="114" height="131" viewBox="0 0 114 131" fill="none" xmlns="http://www.w3.org/2000/svg">
<g clip-path="url(#clip0_1081_907)">
<path d="M56.73 0L0 32.75V98.24L56.72 130.99L113.44 98.24V32.75L56.73 0Z" fill="white"/>
<path d="M56.72 101.13V83.3097L41.29 92.2197V74.3997L25.86 83.3097V59.9197L0 44.9297V98.2397L56.72 130.99L102.83 104.37L77.02 89.3997L56.72 101.13Z" fill="url(#paint0_linear_1081_907)"/>
<path d="M56.72 0L10.52 26.68L36.33 41.64L56.72 29.86V47.68L72.15 38.77V56.59L87.58 47.68V71.17L113.44 86.17V32.75L56.72 0Z" fill="url(#paint1_linear_1081_907)"/>
<path d="M41.2899 56.5904L56.7199 47.6804V29.8604L25.8599 47.6804V83.3103L41.2899 74.4004V56.5904Z" fill="#0C162C"/>
<path d="M66.89 83.5197V71.3597L77.42 65.2797L87.59 71.1697V47.6797L56.73 65.4897V101.13L77.03 89.3997L66.89 83.5197Z" fill="#0C162C"/>
</g>
<defs>
<linearGradient id="paint0_linear_1081_907" x1="51.43" y1="74.6197" x2="28.35" y2="114.61" gradientUnits="userSpaceOnUse">
<stop stop-color="#7790E2"/>
<stop offset="1" stop-color="#486DDC"/>
</linearGradient>
<linearGradient id="paint1_linear_1081_907" x1="85.09" y1="16.38" x2="61.96" y2="56.45" gradientUnits="userSpaceOnUse">
<stop stop-color="#7790E2"/>
<stop offset="1" stop-color="#486DDC"/>
</linearGradient>
<clipPath id="clip0_1081_907">
<rect width="113.45" height="130.99" fill="white"/>
</clipPath>
</defs>
</svg>
