<svg width="114" height="131" viewBox="0 0 114 131" fill="none" xmlns="http://www.w3.org/2000/svg">
<g clip-path="url(#clip0_1081_898)">
<path d="M56.72 0L0 32.75V98.24L56.72 130.99L113.44 98.24V32.75L56.72 0Z" fill="white"/>
<path d="M56.72 0L0 32.75V98.24L56.72 130.99L113.44 98.24V32.75L56.72 0ZM92.34 75.04C92.34 75.04 92.04 76.06 91.37 76.74L67.95 100.16C67 101.11 65.61 101.49 64.3 101.14L32.31 92.57C31.01 92.22 29.99 91.2 29.64 89.9L21.07 57.91C20.72 56.61 21.09 55.22 22.05 54.26L45.47 30.84C45.94 30.37 46.53 30.04 47.15 29.87C47.78 29.7 48.46 29.69 49.12 29.87L81.11 38.44C82.32 38.77 83.29 39.67 83.69 40.84L92.41 73.41C92.52 73.96 92.49 74.52 92.35 75.05L92.34 75.04Z" fill="url(#paint0_linear_1081_898)"/>
<path d="M92.3398 75.0404L58.7798 66.0404C57.4798 65.6904 56.4598 64.6703 56.1098 63.3703L47.1398 29.8604C46.5098 30.0304 45.9298 30.3604 45.4598 30.8304L22.0398 54.2504C21.0898 55.2004 20.7098 56.5904 21.0598 57.9004L29.6298 89.8904C29.9798 91.1904 30.9998 92.2103 32.2998 92.5603L64.2898 101.13C65.5898 101.48 66.9798 101.11 67.9398 100.15L91.3598 76.7304C92.0398 76.0504 92.3298 75.0303 92.3298 75.0303L92.3398 75.0404Z" fill="#0C162C"/>
<path d="M65 53.5204C63.39 53.0904 62.43 54.0404 62.86 55.6404C63.28 57.2404 64.93 58.8904 66.54 59.3204C68.15 59.7504 69.11 58.8004 68.69 57.2004C68.27 55.6004 66.62 53.9504 65.01 53.5204H65Z" fill="#0C162C"/>
<path d="M73.6299 44.9902C72.0199 44.5602 71.0599 45.5102 71.4899 47.1102C71.9099 48.7102 73.5599 50.3602 75.1699 50.7902C76.7799 51.2202 77.7399 50.2702 77.3199 48.6702C76.8999 47.0702 75.2499 45.4202 73.6399 44.9902H73.6299Z" fill="#0C162C"/>
<path d="M76.3101 56.2304C74.7001 55.8004 73.7401 56.7504 74.1701 58.3504C74.5901 59.9504 76.2401 61.6004 77.8501 62.0304C79.4601 62.4604 80.4201 61.5104 80.0001 59.9104C79.5801 58.3104 77.9301 56.6604 76.3201 56.2304H76.3101Z" fill="#0C162C"/>
<path d="M62.02 42.4003C60.41 41.9703 59.45 42.9203 59.88 44.5203C60.3 46.1203 61.95 47.7703 63.56 48.2003C65.17 48.6303 66.13 47.6803 65.71 46.0803C65.29 44.4803 63.64 42.8303 62.03 42.4003H62.02Z" fill="#0C162C"/>
</g>
<defs>
<linearGradient id="paint0_linear_1081_898" x1="0" y1="65.49" x2="113.44" y2="65.49" gradientUnits="userSpaceOnUse">
<stop stop-color="#7790E2"/>
<stop offset="1" stop-color="#486DDC"/>
</linearGradient>
<clipPath id="clip0_1081_898">
<rect width="113.44" height="130.99" fill="white"/>
</clipPath>
</defs>
</svg>
