<svg width="34" height="34" viewBox="0 0 34 34" fill="none" xmlns="http://www.w3.org/2000/svg">
<rect width="34" height="34" rx="17" fill="white"/>
<g clip-path="url(#clip0_554_1799)">
<path d="M17.0017 13.1156C17.882 13.1156 18.8839 13.8796 18.8839 14.935C18.8839 15.5296 18.6942 15.989 18.4152 16.4084C18.2364 16.6759 18.1002 16.9834 18.0439 17.2065C17.9833 17.4581 17.8508 18.0671 18.5955 18.0775C19.0799 18.09 20.272 17.6712 21.2352 16.5065C21.9758 15.5737 22.4164 14.3909 22.4164 13.1003C22.4164 10.0846 19.9952 7.63965 17.0014 7.63965C14.0077 7.63965 11.5814 10.0856 11.5814 13.1009C11.5814 14.3915 12.0211 15.574 12.7627 16.5071C13.7274 17.6684 14.9189 18.0903 15.4024 18.0781C16.147 18.0681 16.0124 17.4587 15.9545 17.2071C15.8999 16.9843 15.7627 16.6765 15.5795 16.409C15.2983 15.9896 15.1108 15.5303 15.1108 14.9356C15.113 13.8803 16.1108 13.1162 16.9983 13.1162M26.577 18.635C26.3583 18.4512 25.9658 18.1831 25.1664 18.06C24.057 17.8943 23.067 18.1543 22.4711 18.3912C21.6877 18.7012 20.7224 19.4062 20.0555 20.3246C19.3524 21.295 18.988 22.76 19.3367 24.2865C19.4355 24.7162 19.542 24.9584 19.7014 25.2596C19.9099 25.6659 20.4589 26.2409 20.9399 26.344C21.3199 26.4221 21.6167 26.204 21.7624 26.039L26.8002 20.0156C27.1908 19.464 26.9358 18.9343 26.5767 18.6359M11.523 18.3915C10.9267 18.155 9.93798 17.8915 8.82829 18.0603C8.02891 18.1837 7.6361 18.4518 7.41673 18.6353C7.05735 18.9337 6.80048 19.4634 7.19329 20.015C7.58891 20.57 11.2595 24.9162 12.2286 26.0384C12.3742 26.2034 12.6711 26.4218 13.0517 26.3434C13.5355 26.2403 14.083 25.6684 14.2902 25.259C14.4597 24.9544 14.5835 24.6265 14.6577 24.2859C15.0058 22.759 14.6358 21.2943 13.9389 20.324C13.2714 19.4053 12.3045 18.7006 11.5224 18.3906" fill="#007DBA"/>
</g>
<defs>
<clipPath id="clip0_554_1799">
<rect width="20" height="20" fill="white" transform="translate(7 7)"/>
</clipPath>
</defs>
</svg>
