<svg width="114" height="131" viewBox="0 0 114 131" fill="none" xmlns="http://www.w3.org/2000/svg">
<g clip-path="url(#clip0_1064_1849)">
<path d="M56.72 0L0 32.75V98.24L56.72 130.99L113.44 98.24V32.75L56.72 0ZM97.5 73.1C97.27 72.98 97.05 72.87 96.81 72.77C92.41 70.95 87.37 73.04 85.55 77.44C83.73 81.84 85.82 86.88 90.21 88.7C90.45 88.8 90.69 88.88 90.94 88.96C88.05 93.17 84.4 96.82 80.19 99.71C80.11 99.47 80.03 99.22 79.93 98.98C78.11 94.58 73.07 92.49 68.67 94.31C64.27 96.13 62.18 101.17 64.01 105.57C64.11 105.81 64.22 106.04 64.34 106.26C61.87 106.72 59.34 106.97 56.74 106.97C54.14 106.97 51.6 106.72 49.14 106.26C49.26 106.03 49.37 105.81 49.47 105.57C51.29 101.17 49.2 96.13 44.8 94.31C40.4 92.49 35.36 94.58 33.54 98.98C33.44 99.22 33.36 99.46 33.28 99.71C29.07 96.82 25.42 93.17 22.53 88.96C22.77 88.88 23.02 88.8 23.26 88.7C27.66 86.88 29.75 81.84 27.93 77.44C26.11 73.04 21.07 70.95 16.67 72.77C16.43 72.87 16.2 72.98 15.98 73.1C15.52 70.63 15.27 68.1 15.27 65.5C15.27 62.9 15.52 60.36 15.98 57.9C16.21 58.02 16.43 58.13 16.67 58.23C21.07 60.05 26.11 57.96 27.93 53.57C29.75 49.17 27.66 44.13 23.26 42.31C23.02 42.21 22.78 42.13 22.53 42.05C25.42 37.84 29.07 34.19 33.28 31.3C33.36 31.54 33.44 31.79 33.54 32.03C35.36 36.43 40.4 38.52 44.8 36.69C49.2 34.87 51.29 29.83 49.47 25.43C49.37 25.19 49.26 24.96 49.14 24.74C51.61 24.28 54.14 24.03 56.74 24.03C59.34 24.03 61.88 24.28 64.34 24.74C64.22 24.97 64.11 25.19 64.01 25.43C62.19 29.83 64.28 34.87 68.67 36.69C73.07 38.51 78.11 36.42 79.93 32.03C80.03 31.79 80.11 31.55 80.19 31.3C84.4 34.19 88.05 37.84 90.94 42.05C90.7 42.13 90.45 42.21 90.21 42.31C85.81 44.13 83.72 49.17 85.55 53.57C87.37 57.97 92.41 60.06 96.81 58.23C97.05 58.13 97.28 58.02 97.5 57.9C97.96 60.37 98.21 62.9 98.21 65.5C98.21 68.1 97.96 70.64 97.5 73.1Z" fill="url(#paint0_linear_1064_1849)"/>
<path d="M64.48 78.93C59.68 81.7 53.77 81.7 48.97 78.93C44.17 76.16 41.21 71.04 41.21 65.49C41.21 59.94 44.17 54.83 48.97 52.05C53.77 49.28 59.68 49.28 64.48 52.05C69.28 54.82 72.24 59.94 72.24 65.49C72.24 71.04 69.28 76.15 64.48 78.93Z" fill="white"/>
</g>
<defs>
<linearGradient id="paint0_linear_1064_1849" x1="85.08" y1="16.37" x2="28.36" y2="114.62" gradientUnits="userSpaceOnUse">
<stop stop-color="#7790E2"/>
<stop offset="1" stop-color="#486DDC"/>
</linearGradient>
<clipPath id="clip0_1064_1849">
<rect width="113.44" height="130.99" fill="white"/>
</clipPath>
</defs>
</svg>
