<svg width="114" height="131" viewBox="0 0 114 131" fill="none" xmlns="http://www.w3.org/2000/svg">
<g clip-path="url(#clip0_1064_1882)">
<path d="M80.04 52.03C81.85 55.63 82.88 59.7 82.88 64.01C82.88 78.77 70.91 90.74 56.15 90.74C41.39 90.74 29.42 78.77 29.42 64.01C29.42 59.5 30.54 55.24 32.52 51.52L0 32.75V98.24L56.72 130.99L113.44 98.24V32.75L80.04 52.03Z" fill="url(#paint0_linear_1064_1882)"/>
<path d="M32.51 51.52C37 43.05 45.89 37.28 56.14 37.28C66.39 37.28 75.63 43.3 80.02 52.04L113.44 32.74L56.72 0L0 32.75L32.51 51.52Z" fill="#0C162C"/>
<path d="M32.51 51.52C30.53 55.25 29.41 59.5 29.41 64.01C29.41 78.77 41.38 90.74 56.14 90.74C70.9 90.74 82.87 78.77 82.87 64.01C82.87 59.7 81.85 55.64 80.03 52.03L56.71 65.49L32.5 51.51L32.51 51.52Z" fill="#0C162C"/>
<path d="M80.04 52.03C81.85 55.63 82.88 59.7 82.88 64.01C82.88 78.77 70.91 90.74 56.15 90.74C41.39 90.74 29.42 78.77 29.42 64.01C29.42 59.5 30.54 55.24 32.52 51.52L0 32.75V98.24L56.72 130.99L113.44 98.24V32.75L80.04 52.03Z" fill="url(#paint1_linear_1064_1882)"/>
<path d="M32.51 51.52C37 43.05 45.89 37.28 56.14 37.28C66.39 37.28 75.63 43.3 80.02 52.04L113.44 32.74L56.72 0L0 32.75L32.51 51.52Z" fill="white"/>
<path d="M32.51 51.52C30.53 55.25 29.41 59.5 29.41 64.01C29.41 78.77 41.38 90.74 56.14 90.74C70.9 90.74 82.87 78.77 82.87 64.01C82.87 59.7 81.85 55.64 80.03 52.03L56.71 65.49L32.5 51.51L32.51 51.52Z" fill="white"/>
</g>
<defs>
<linearGradient id="paint0_linear_1064_1882" x1="85.08" y1="16.37" x2="28.36" y2="114.62" gradientUnits="userSpaceOnUse">
<stop stop-color="#7790E2"/>
<stop offset="1" stop-color="#486DDC"/>
</linearGradient>
<linearGradient id="paint1_linear_1064_1882" x1="85.08" y1="16.37" x2="28.36" y2="114.62" gradientUnits="userSpaceOnUse">
<stop stop-color="#7790E2"/>
<stop offset="1" stop-color="#486DDC"/>
</linearGradient>
<clipPath id="clip0_1064_1882">
<rect width="113.44" height="130.99" fill="white"/>
</clipPath>
</defs>
</svg>
