<svg width="99" height="32" viewBox="0 0 99 32" fill="none" xmlns="http://www.w3.org/2000/svg">
<g opacity="0.5">
<path d="M40.7624 4.88201V13.7492H37.8594V0.152588H40.8472L47.1732 8.69399V0.152588H50.0793V13.7531H47.2735L40.7624 4.88201Z" fill="#1A2B6B"/>
<path d="M57.1929 3.65869C60.1399 3.65869 62.1456 5.86012 62.1456 9.0812V9.65135H54.796C54.9595 10.8954 55.9624 11.935 57.6403 11.935C58.5615 11.935 59.6461 11.5677 60.2803 10.9561L61.4305 12.6281C60.4484 13.5248 58.8932 13.9935 57.358 13.9935C54.3493 13.9935 52.0781 11.9757 52.0781 8.81611C52.0766 5.96232 54.1842 3.65869 57.1929 3.65869ZM54.7574 7.89865H59.6284C59.5667 6.96122 58.9117 5.7172 57.1929 5.7172C55.5759 5.7172 54.8801 6.9205 54.7574 7.89865Z" fill="#1A2B6B"/>
<path d="M68.0775 10.4283L65.8056 13.7516H62.9219L66.422 8.6964L63.1271 3.9032H66.0332L68.0775 6.94063L70.1034 3.9032H73.0149L69.6976 8.69409L73.2386 13.7493H70.331L68.0775 10.4283Z" fill="#1A2B6B"/>
<path d="M81.1872 12.5029C80.5114 13.2574 79.3249 13.9912 77.7079 13.9912C75.5386 13.9912 74.5156 12.8087 74.5156 10.8931V3.90076H77.1147V9.87343C77.1147 11.2396 77.8306 11.6876 78.9361 11.6876C79.939 11.6876 80.7367 11.1374 81.1872 10.5665V3.90306H83.7862V13.7492H81.1872V12.5029Z" fill="#1A2B6B"/>
<path d="M86.6357 10.6503C87.3516 11.3234 88.8251 11.9957 90.0532 11.9957C91.1788 11.9957 91.7111 11.547 91.7111 10.9361C91.7111 10.263 90.8108 10.0793 89.7261 9.87572C88.0289 9.54992 85.8372 9.12193 85.8372 6.75683C85.8372 5.10633 87.2906 3.65869 89.8897 3.65869C91.5676 3.65869 92.8984 4.2296 93.8804 5.00414L92.8343 6.77758C92.2411 6.14519 91.1155 5.63575 89.9074 5.63575C88.9663 5.63575 88.3522 6.06374 88.3522 6.61468C88.3522 7.18482 89.1298 7.34849 90.2353 7.57286C91.9325 7.89865 94.2052 8.36737 94.2052 10.8339C94.2052 12.6281 92.6708 13.9935 89.9283 13.9935C88.2095 13.9935 86.5516 13.4226 85.5078 12.4644L86.6357 10.6503Z" fill="#1A2B6B"/>
<path d="M49.0656 22.0925L45.4335 31.7557H44.2339L40.6027 22.0925V31.7557H37.8594V18.4664H41.7043L44.8341 26.2932L47.9639 18.4664H51.8289V31.7595H49.0656V22.0925Z" fill="#1A2B6B"/>
<path d="M60.938 30.5123C60.2622 31.2661 59.0757 31.9999 57.4587 31.9999C55.2894 31.9999 54.2656 30.8181 54.2656 28.9018V21.9094H56.8654V27.8813C56.8654 29.2475 57.5813 29.6963 58.6868 29.6963C59.6897 29.6963 60.4874 29.1453 60.938 28.5752V21.9102H63.537V31.7555H60.938V30.5123Z" fill="#1A2B6B"/>
<path d="M66.8089 29.3099V24.1724H65.1719V21.9103H66.8089V19.2209H69.4319V21.9103H71.4377V24.1724H69.4319V28.6168C69.4319 29.2315 69.759 29.6971 70.3322 29.6971C70.7179 29.6971 71.0897 29.5542 71.2324 29.4113L71.7856 31.3684C71.3999 31.7149 70.7009 32 69.6162 32C67.791 32 66.8089 31.0626 66.8089 29.3099Z" fill="#1A2B6B"/>
<path d="M79.8981 30.5123C79.2231 31.2661 78.0358 31.9999 76.4189 31.9999C74.2495 31.9999 73.2266 30.8181 73.2266 28.9018V21.9094H75.8256V27.8813C75.8256 29.2475 76.5415 29.6963 77.647 29.6963C78.6499 29.6963 79.4476 29.1453 79.8981 28.5752V21.9102H82.4972V31.7555H79.8981V30.5123Z" fill="#1A2B6B"/>
<path d="M91.0065 30.7368C90.3314 31.5313 89.165 32.0001 87.8759 32.0001C86.2998 32.0001 84.4375 30.9405 84.4375 28.739C84.4375 26.4339 86.2998 25.5994 87.8759 25.5994C89.1874 25.5994 90.3523 26.0074 91.0065 26.8027V25.4365C91.0065 24.4376 90.1471 23.7852 88.8379 23.7852C87.7733 23.7852 86.7912 24.1694 85.9519 24.947L84.9698 23.2151C86.1771 22.1547 87.7324 21.666 89.29 21.666C91.5411 21.666 93.6101 22.5627 93.6101 25.3958V31.7557H91.0103L91.0065 30.7368ZM91.0065 28.1681C90.5768 27.5972 89.7582 27.3121 88.9197 27.3121C87.8959 27.3121 87.0574 27.8423 87.0574 28.7997C87.0574 29.7172 87.8959 30.2474 88.9197 30.2474C89.7582 30.2474 90.5768 29.9623 91.0065 29.3914V28.1681Z" fill="#1A2B6B"/>
<path d="M96.1797 18.1597H98.781V31.7555H96.182L96.1797 18.1597Z" fill="#1A2B6B"/>
<path d="M31.0833 22.5426C31.3973 22.2593 31.651 21.9161 31.8292 21.5333C32.0075 21.1505 32.1067 20.7359 32.121 20.3142C32.1353 19.8924 32.0644 19.4721 31.9125 19.0782C31.7606 18.6843 31.5308 18.3248 31.2368 18.021C30.9427 17.7173 30.5903 17.4754 30.2006 17.3099C29.8109 17.1444 29.3918 17.0585 28.9681 17.0574C28.5445 17.0563 28.1249 17.14 27.7343 17.3035C27.3438 17.4669 26.9902 17.7069 26.6945 18.0092C26.121 18.5954 25.799 19.381 25.7969 20.1995C25.7947 21.018 26.1125 21.8053 26.6829 22.3945C27.2534 22.9837 28.0317 23.3287 28.853 23.3564C29.6743 23.384 30.4742 23.0922 31.0833 22.5426Z" fill="#1A2B6B"/>
<path d="M9.54533 30.6723C9.82976 30.985 10.1744 31.2377 10.5587 31.4152C10.943 31.5928 11.3593 31.6916 11.7827 31.7058C12.2061 31.7201 12.6281 31.6495 13.0236 31.4982C13.4191 31.3469 13.78 31.118 14.085 30.8251C14.39 30.5322 14.6328 30.1813 14.799 29.7931C14.9652 29.4049 15.0514 28.9875 15.0525 28.5655C15.0536 28.1435 14.9696 27.7256 14.8055 27.3366C14.6413 26.9476 14.4004 26.5954 14.0969 26.3009C13.5083 25.7297 12.7196 25.409 11.8978 25.4069C11.076 25.4047 10.2857 25.7212 9.69406 26.2894C9.10247 26.8576 8.75613 27.6328 8.72837 28.4508C8.70061 29.2689 8.99361 30.0656 9.54533 30.6723Z" fill="#1A2B6B"/>
<path d="M1.41451 9.04513C1.10052 9.32842 0.846862 9.67166 0.668604 10.0545C0.490346 10.4373 0.391117 10.8518 0.376805 11.2736C0.362494 11.6953 0.433392 12.1156 0.585292 12.5095C0.737193 12.9035 0.966999 13.263 1.26107 13.5667C1.55514 13.8705 1.90749 14.1123 2.29719 14.2779C2.6869 14.4434 3.10602 14.5293 3.52968 14.5304C3.95334 14.5315 4.37291 14.4478 4.76348 14.2843C5.15405 14.1208 5.50766 13.8808 5.80333 13.5786C6.37686 12.9924 6.69878 12.2068 6.70094 11.3883C6.7031 10.5697 6.38531 9.7825 5.81488 9.19327C5.24445 8.60403 4.46616 8.25906 3.64482 8.23141C2.82348 8.20376 2.02358 8.4956 1.41451 9.04513Z" fill="#1A2B6B"/>
<path d="M23.091 1.04167C22.807 0.727654 22.4624 0.473773 22.0778 0.295151C21.6932 0.116528 21.2764 0.0168149 20.8523 0.00194922C20.4283 -0.0129164 20.0055 0.0573692 19.6092 0.208621C19.213 0.359873 18.8513 0.588998 18.5458 0.882353C18.2403 1.17571 17.9972 1.52729 17.831 1.91618C17.6647 2.30506 17.5787 2.72329 17.5781 3.14596C17.5775 3.56862 17.6623 3.98709 17.8275 4.37644C17.9926 4.76579 18.2347 5.11805 18.5394 5.41226C19.1284 5.98104 19.9163 6.29963 20.7367 6.30078C21.557 6.30193 22.3458 5.98555 22.9364 5.41843C23.527 4.8513 23.8733 4.0778 23.9021 3.26119C23.931 2.44458 23.6401 1.64875 23.091 1.04167Z" fill="#1A2B6B"/>
<path d="M29.8654 10.7579C30.1623 10.4602 30.3931 10.1037 30.5428 9.71146C30.6926 9.31927 30.758 8.90011 30.7348 8.48114V8.45732C30.5921 5.86939 27.4415 4.66917 25.6016 6.50101L22.6237 9.52077C21.671 10.4705 19.4677 10.615 18.3352 9.48696L11.2108 2.30791C10.9302 2.01985 10.5945 1.79077 10.2235 1.63424C9.85243 1.47771 9.45365 1.3969 9.05071 1.39661C6.36989 1.39661 5.02833 4.62383 6.9238 6.51407L9.92708 9.40167C11.0195 10.5858 10.9007 12.6719 9.92708 13.6409L2.70933 20.8414C2.15354 21.395 1.83733 22.1432 1.82832 22.9261V22.9929C1.79901 25.6807 5.05687 27.0485 6.96777 25.1482L9.96643 22.1477C11.0094 21.1088 13.1803 21.0973 14.2735 22.1861L21.3663 29.2929C21.6563 29.5819 22.0026 29.8087 22.3839 29.9595C22.7652 30.1103 23.1734 30.1818 23.5834 30.1697H23.5927C26.2303 30.0928 27.4978 26.9117 25.6324 25.0537L22.7634 22.1692C21.7011 21.1111 21.6208 19.068 22.7564 17.9369L29.8654 10.7579ZM18.6206 18.1751C17.9864 18.7844 17.1351 19.1179 16.254 19.102C15.3729 19.0862 14.5342 18.7223 13.9225 18.0906C13.3107 17.4589 12.976 16.6109 12.9919 15.7334C13.0078 14.8558 13.3731 14.0204 14.0073 13.4111C14.6416 12.8018 15.4929 12.4684 16.374 12.4842C17.2551 12.5001 18.0937 12.8639 18.7055 13.4956C19.3173 14.1274 19.652 14.9753 19.6361 15.8529C19.6202 16.7305 19.2549 17.5658 18.6206 18.1751Z" fill="#1A2B6B"/>
</g>
</svg>
