<svg width="88" height="34" viewBox="0 0 88 34" fill="none" xmlns="http://www.w3.org/2000/svg">
<g opacity="0.5">
<path d="M39.7813 25.9607V8.37054C39.7833 8.34823 39.7933 8.3274 39.8096 8.31195C39.8258 8.2965 39.8471 8.28747 39.8695 8.28654H51.046C51.0705 8.28654 51.094 8.29627 51.1113 8.3136C51.1286 8.33093 51.1384 8.35444 51.1384 8.37894V10.6176C51.1384 10.6421 51.1286 10.6656 51.1113 10.6829C51.094 10.7003 51.0705 10.71 51.046 10.71H42.4777V15.893H49.7649C49.7895 15.893 49.813 15.9027 49.8303 15.92C49.8476 15.9374 49.8573 15.9609 49.8573 15.9854V18.1988C49.8573 18.2233 49.8476 18.2468 49.8303 18.2642C49.813 18.2815 49.7895 18.2912 49.7649 18.2912H42.4777V23.6296H51.046C51.0705 23.6296 51.094 23.6393 51.1113 23.6567C51.1286 23.674 51.1384 23.6975 51.1384 23.722V25.9607C51.1384 25.9852 51.1286 26.0087 51.1113 26.026C51.094 26.0433 51.0705 26.0531 51.046 26.0531H39.8695C39.8457 26.052 39.8232 26.0418 39.8068 26.0246C39.7904 26.0073 39.7812 25.9845 39.7813 25.9607ZM67.5735 26.0069L59.3958 13.5535V25.9565C59.3958 25.981 59.3861 26.0045 59.3688 26.0218C59.3514 26.0391 59.3279 26.0489 59.3034 26.0489H56.7833C56.7588 26.0489 56.7353 26.0391 56.718 26.0218C56.7007 26.0045 56.6909 25.981 56.6909 25.9565V8.38314C56.6909 8.35864 56.7007 8.33513 56.718 8.3178C56.7353 8.30047 56.7588 8.29074 56.7833 8.29074H59.1144C59.1295 8.29104 59.1443 8.29503 59.1574 8.30235C59.1706 8.30967 59.1818 8.3201 59.19 8.33274L67.3761 20.7609V8.38314C67.3761 8.35864 67.3858 8.33513 67.4031 8.3178C67.4205 8.30047 67.444 8.29074 67.4685 8.29074H69.9885C70.013 8.29074 70.0365 8.30047 70.0539 8.3178C70.0712 8.33513 70.0809 8.35864 70.0809 8.38314V25.9565C70.0809 25.981 70.0712 26.0045 70.0539 26.0218C70.0365 26.0391 70.013 26.0489 69.9885 26.0489H67.6491C67.634 26.0486 67.6192 26.0446 67.606 26.0373C67.5929 26.0299 67.5817 26.0195 67.5735 26.0069ZM78.3258 22.6384V23.4784C79.4056 23.7128 80.5055 23.8422 81.6103 23.8648C82.7023 23.8425 83.7896 23.7145 84.857 23.4826V19.5009L75.7091 16.3046C75.6921 16.2979 75.6774 16.2864 75.667 16.2715C75.6565 16.2565 75.6507 16.2388 75.6503 16.2206V8.90816C75.6487 8.88948 75.6537 8.87082 75.6644 8.85546C75.6752 8.8401 75.691 8.82902 75.7091 8.82416C77.6161 8.29137 79.5842 8.00899 81.5641 7.98413C83.5521 8.01026 85.5284 8.29259 87.4443 8.82416C87.4624 8.82902 87.4782 8.8401 87.4889 8.85546C87.4997 8.87082 87.5047 8.88948 87.5031 8.90816V11.6676C87.5031 11.6921 87.4933 11.7156 87.476 11.733C87.4587 11.7503 87.4352 11.76 87.4106 11.76H84.9368C84.9123 11.76 84.8888 11.7503 84.8714 11.733C84.8541 11.7156 84.8444 11.6921 84.8444 11.6676V10.8276C83.7644 10.5948 82.6645 10.4668 81.5599 10.4454C80.468 10.4669 79.3808 10.5935 78.3132 10.8234L78.3258 14.5867L87.44 17.7788C87.457 17.7854 87.4717 17.797 87.4822 17.8119C87.4926 17.8269 87.4984 17.8446 87.4989 17.8628V25.402C87.5005 25.4207 87.4955 25.4394 87.4847 25.4547C87.474 25.4701 87.4582 25.4812 87.44 25.486C85.5331 26.0187 83.5649 26.3011 81.5851 26.3261C79.5971 26.2998 77.6208 26.0174 75.7049 25.486C75.6868 25.4812 75.671 25.4701 75.6602 25.4547C75.6495 25.4394 75.6445 25.4207 75.6461 25.402V22.6384C75.6461 22.6139 75.6558 22.5904 75.6732 22.573C75.6905 22.5557 75.714 22.546 75.7385 22.546H78.2082C78.2222 22.542 78.237 22.5414 78.2513 22.5442C78.2656 22.547 78.2791 22.5532 78.2905 22.5622C78.302 22.5712 78.3112 22.5828 78.3173 22.596C78.3234 22.6093 78.3263 22.6238 78.3258 22.6384Z" fill="#1A2B6B"/>
<path d="M4.69645 13.7553C5.03246 14.4735 5.86408 15.8931 5.86408 15.8931L15.4782 -0.00012207L6.09509 6.55207C5.53599 6.92506 5.07728 7.42992 4.75945 8.02211C4.3321 8.9155 4.10504 9.89145 4.09416 10.8817C4.08328 11.872 4.28883 12.8527 4.69645 13.7553Z" fill="#1A2B6B"/>
<path d="M0.888328 18.9887C0.994269 20.509 1.4238 21.9891 2.14816 23.3299C2.87253 24.6707 3.875 25.8412 5.08845 26.7632L15.467 34C15.467 34 8.97357 24.6421 3.4966 15.3304C2.94212 14.3467 2.56936 13.2711 2.39617 12.1551C2.31951 11.6498 2.31951 11.1358 2.39617 10.6305C2.25337 10.8951 1.97616 11.4369 1.97616 11.4369C1.42082 12.5695 1.0426 13.7807 0.854727 15.028C0.746588 16.3466 0.757834 17.6722 0.888328 18.9887Z" fill="#1A2B6B"/>
<path d="M27.3677 20.2443C27.0316 19.5261 26.2 18.1064 26.2 18.1064L16.5859 33.9997L25.969 27.4517C26.5281 27.0787 26.9868 26.5739 27.3047 25.9817C27.7326 25.0877 27.96 24.111 27.9709 23.12C27.9818 22.1289 27.7759 21.1474 27.3677 20.2443Z" fill="#1A2B6B"/>
<path d="M31.1724 15.0111C31.0664 13.4909 30.6369 12.0108 29.9125 10.67C29.1882 9.32918 28.1857 8.15862 26.9723 7.23669L16.5938 -0.00012207C16.5938 -0.00012207 23.0829 9.35775 28.5641 18.6694C29.1171 19.6535 29.4885 20.7291 29.6603 21.8447C29.737 22.35 29.737 22.864 29.6603 23.3694C29.8031 23.1048 30.0803 22.5629 30.0803 22.5629C30.6357 21.4303 31.0139 20.2192 31.2018 18.9718C31.3113 17.6534 31.3015 16.3278 31.1724 15.0111Z" fill="#1A2B6B"/>
<g style="mix-blend-mode:color">
<path d="M4.76084 8.02224C5.07868 7.43004 5.53738 6.92518 6.09648 6.55219L15.4796 0L5.86547 15.8975C5.86547 15.8975 5.02545 14.4778 4.69784 13.7596C4.28959 12.8565 4.08369 11.875 4.09458 10.884C4.10546 9.89289 4.33286 8.91619 4.76084 8.02224ZM0.888328 18.9888C0.994269 20.509 1.4238 21.9891 2.14816 23.3299C2.87253 24.6707 3.875 25.8413 5.08845 26.7632L15.467 34C15.467 34 8.97357 24.6421 3.4966 15.3305C2.94212 14.3467 2.56936 13.2711 2.39617 12.1552C2.31951 11.6498 2.31951 11.1358 2.39617 10.6305C2.25337 10.8951 1.97616 11.4369 1.97616 11.4369C1.42082 12.5695 1.0426 13.7807 0.854727 15.028C0.746588 16.3466 0.757834 17.6722 0.888328 18.9888ZM27.3491 20.2488C27.0131 19.5306 26.1815 18.1109 26.1815 18.1109L16.5842 34L25.9673 27.452C26.5264 27.079 26.9851 26.5742 27.3029 25.982C27.7309 25.088 27.9583 24.1113 27.9692 23.1203C27.9801 22.1292 27.7742 21.1477 27.3659 20.2446L27.3491 20.2488ZM31.1586 15.0154C31.0527 13.4952 30.6231 12.0151 29.8988 10.6743C29.1744 9.3335 28.1719 8.16295 26.9585 7.24101L16.5968 0C16.5968 0 23.086 9.35788 28.5671 18.6695C29.1202 19.6536 29.4915 20.7292 29.6634 21.8448C29.74 22.3502 29.74 22.8642 29.6634 23.3695C29.8062 23.1049 30.0834 22.5631 30.0834 22.5631C30.6387 21.4305 31.0169 20.2193 31.2048 18.972C31.3144 17.6535 31.3045 16.3279 31.1754 15.0112L31.1586 15.0154Z" fill="#1A2B6B"/>
</g>
</g>
</svg>
