<svg width="166" height="12" viewBox="0 0 166 12" fill="none" xmlns="http://www.w3.org/2000/svg">
<g opacity="0.5" clip-path="url(#clip0_2576_1520)">
<path d="M16.7949 5.69094C16.0938 5.00184 15.2513 4.65745 14.2669 4.65745H4.50913C4.3279 4.65745 4.17242 4.59413 4.04239 4.46718C3.91235 4.34056 3.84748 4.1861 3.84748 4.00384V3.20793C3.84748 3.03397 3.91235 2.88336 4.04239 2.75641C4.17242 2.62979 4.3279 2.56615 4.50913 2.56615H17.0903C17.1218 2.56615 17.1472 2.55624 17.1669 2.53642C17.1866 2.5169 17.1965 2.49484 17.1965 2.47118V0.0949716C17.1965 0.0633144 17.1866 0.0396514 17.1669 0.023663C17.1472 0.00799422 17.1214 0 17.0903 0H4.50913C3.51682 0 2.67203 0.344712 1.9751 1.03382C1.27816 1.72292 0.929688 2.55432 0.929688 3.52866V3.68311C0.929688 4.66544 1.27816 5.501 1.9751 6.19008C2.67203 6.87918 3.51682 7.22358 4.50913 7.22358H14.2669C14.4402 7.22358 14.5919 7.28502 14.7216 7.40778C14.8516 7.5306 14.9165 7.68312 14.9165 7.8654V8.6613C14.9165 8.84352 14.8516 8.9961 14.7216 9.11886C14.5915 9.24168 14.4399 9.30306 14.2669 9.30306H1.674C1.65047 9.30306 1.62853 9.31296 1.60914 9.33282C1.58943 9.35262 1.57957 9.37854 1.57957 9.41016V11.7864C1.57957 11.81 1.58943 11.8321 1.60914 11.8516C1.62885 11.8714 1.65047 11.8814 1.674 11.8814H14.2669C15.2513 11.8814 16.0938 11.5351 16.7949 10.8418C17.4957 10.1488 17.8463 9.31518 17.8463 8.3409V8.1861C17.846 7.21176 17.4957 6.38004 16.7949 5.69094Z" fill="#1A2B6B"/>
<path d="M37.9831 0.00012207H35.2541C35.2306 0.00012207 35.2087 0.00811629 35.1892 0.0237851C35.1695 0.0397735 35.1596 0.0634365 35.1596 0.0950937V3.11276C35.1596 3.37401 35.0255 3.57227 34.7581 3.70689L29.3123 5.97598L23.8666 3.70689C23.5988 3.57227 23.465 3.37433 23.465 3.11276V0.0950937C23.465 0.0634365 23.457 0.0397735 23.4415 0.0237851C23.4252 0.00811629 23.4017 0.00012207 23.3702 0.00012207H20.6413C20.6177 0.00012207 20.5958 0.00811629 20.5764 0.0237851C20.5567 0.0397735 20.5469 0.0634365 20.5469 0.0950937V3.55245C20.5469 4.06759 20.6887 4.53861 20.9723 4.96615C21.2559 5.394 21.6415 5.71057 22.1299 5.9165L27.8476 8.32818V11.774C27.8476 11.8057 27.8574 11.8316 27.8771 11.8514C27.8968 11.8712 27.9223 11.8811 27.9538 11.8811H30.6827C30.7062 11.8811 30.7278 11.8712 30.7475 11.8514C30.7672 11.8316 30.7771 11.806 30.7771 11.774V8.32854L36.4947 5.92865C36.9828 5.71473 37.3691 5.39592 37.6523 4.97222C37.936 4.54852 38.0774 4.07943 38.0774 3.56428V0.0950937C38.0774 0.0634365 38.0676 0.0397735 38.0479 0.0237851C38.0282 0.00811629 38.0066 0.00012207 37.9831 0.00012207Z" fill="#1A2B6B"/>
<path d="M58.2516 0.00012207H55.5227C55.4912 0.00012207 55.4673 0.0100349 55.4517 0.0298607C55.4358 0.0496864 55.4282 0.0714309 55.4282 0.0950937V9.3147H54.2823C54.0696 9.3147 53.8884 9.21972 53.739 9.02946L48.4467 1.24755C47.8796 0.4478 47.0958 0.0317793 46.0959 0.00012207H41.5362C41.5047 0.00012207 41.4789 0.0100349 41.4593 0.0298607C41.4395 0.0496864 41.4297 0.0714309 41.4297 0.0950937V11.7859C41.4297 11.8096 41.4395 11.8316 41.4593 11.8511C41.4789 11.8709 41.5044 11.8808 41.5362 11.8808H44.2651C44.2887 11.8808 44.3103 11.8709 44.33 11.8511C44.3497 11.8316 44.3595 11.8096 44.3595 11.7859V2.56627H45.5054C45.7181 2.56627 45.8991 2.66541 46.0488 2.86334L51.341 10.6453C51.9083 11.4453 52.6917 11.8572 53.6919 11.8808H58.2519C58.2834 11.8808 58.3069 11.8709 58.3228 11.8511C58.3384 11.8316 58.3463 11.8096 58.3463 11.7859V0.0950937C58.3463 0.0714309 58.3384 0.0496864 58.3228 0.0298607C58.3066 0.0100349 58.2831 0.00012207 58.2516 0.00012207Z" fill="#1A2B6B"/>
<path d="M77.9743 0.00012207H61.2583C61.2271 0.00012207 61.2031 0.0100349 61.1875 0.0298607C61.1713 0.0496864 61.1641 0.0714309 61.1641 0.0950937V2.47131C61.1641 2.49496 61.1713 2.51703 61.1875 2.53654C61.2031 2.55636 61.2271 2.56627 61.2583 2.56627H68.1571V11.7859C68.1571 11.8096 68.1649 11.8316 68.1805 11.8511C68.1961 11.8709 68.2201 11.8808 68.2513 11.8808H70.9807C71.0119 11.8808 71.0353 11.8709 71.0515 11.8511C71.0671 11.8316 71.0749 11.8096 71.0749 11.7859V2.56627H77.9737C78.0055 2.56627 78.0307 2.55636 78.0505 2.53654C78.0703 2.51671 78.0799 2.49496 78.0799 2.47131V0.0950937C78.0799 0.0714309 78.0703 0.0496864 78.0505 0.0298607C78.0313 0.0100349 78.0055 0.00012207 77.9743 0.00012207Z" fill="#1A2B6B"/>
<path d="M98.2399 0.00012207H95.5111C95.4871 0.00012207 95.4655 0.0100349 95.4457 0.0298607C95.4265 0.0496864 95.4163 0.0714309 95.4163 0.0950937V4.65725H84.3595V0.0950937C84.3595 0.0714309 84.3493 0.0496864 84.3295 0.0298607C84.3097 0.0103547 84.2839 0.00012207 84.2533 0.00012207H81.5239C81.5005 0.00012207 81.4789 0.0100349 81.4591 0.0298607C81.4393 0.0496864 81.4297 0.0714309 81.4297 0.0950937V11.7859C81.4297 11.8096 81.4393 11.8316 81.4591 11.8511C81.4789 11.8709 81.5005 11.8808 81.5239 11.8808H84.2533C84.2845 11.8808 84.3097 11.8709 84.3295 11.8511C84.3493 11.8313 84.3595 11.8096 84.3595 11.7859V7.2237H95.4163V11.7859C95.4163 11.8096 95.4265 11.8316 95.4457 11.8511C95.4655 11.8709 95.4871 11.8808 95.5111 11.8808H98.2399C98.2711 11.8808 98.2969 11.8709 98.3167 11.8511C98.3359 11.8313 98.3461 11.8096 98.3461 11.7859V0.0950937C98.3461 0.0714309 98.3359 0.0496864 98.3167 0.0298607C98.2969 0.0100349 98.2711 0.00012207 98.2399 0.00012207Z" fill="#1A2B6B"/>
<path d="M118.439 0.00012207H105.197C104.212 0.00012207 103.37 0.344514 102.669 1.03362C101.968 1.72272 101.617 2.55444 101.617 3.52878V8.34036C101.617 9.32268 101.968 10.1582 102.669 10.8473C103.37 11.5364 104.212 11.8811 105.197 11.8811H118.439C118.463 11.8811 118.484 11.8712 118.504 11.8514C118.524 11.8316 118.534 11.8099 118.534 11.7862V9.40998C118.534 9.3783 118.524 9.35466 118.504 9.3387C118.484 9.32298 118.463 9.315 118.439 9.315H105.197C105.016 9.315 104.862 9.2517 104.736 9.12504C104.61 8.99844 104.547 8.84784 104.547 8.67354V7.2237H118.431C118.462 7.2237 118.486 7.2138 118.502 7.194C118.517 7.17414 118.525 7.15242 118.525 7.12872V4.75254C118.525 4.72088 118.517 4.69722 118.502 4.68123C118.486 4.66556 118.462 4.65757 118.431 4.65757H104.547V3.20805C104.547 3.03378 104.61 2.88349 104.736 2.75653C104.862 2.62991 105.016 2.56627 105.197 2.56627H118.439C118.463 2.56627 118.484 2.55636 118.504 2.53654C118.524 2.51703 118.534 2.49496 118.534 2.4713V0.0950937C118.534 0.0714309 118.524 0.0496864 118.504 0.0298607C118.484 0.0103547 118.463 0.00012207 118.439 0.00012207Z" fill="#1A2B6B"/>
<path d="M138.615 0.00012207H121.899C121.868 0.00012207 121.844 0.0100349 121.828 0.0298607C121.812 0.0496864 121.805 0.0714309 121.805 0.0950937V2.47131C121.805 2.49496 121.812 2.51703 121.828 2.53654C121.844 2.55636 121.868 2.56627 121.899 2.56627H128.798V11.7859C128.798 11.8096 128.805 11.8316 128.822 11.8511C128.837 11.8709 128.861 11.8808 128.892 11.8808H131.621C131.653 11.8808 131.676 11.8709 131.692 11.8511C131.708 11.8316 131.715 11.8096 131.715 11.7859V2.56627H138.614C138.646 2.56627 138.671 2.55636 138.691 2.53654C138.711 2.51671 138.72 2.49496 138.72 2.47131V0.0950937C138.72 0.0714309 138.711 0.0496864 138.691 0.0298607C138.672 0.0100349 138.646 0.00012207 138.615 0.00012207Z" fill="#1A2B6B"/>
<path d="M144.965 0.0237851C144.949 0.00811629 144.925 0.00012207 144.894 0.00012207H142.165C142.133 0.00012207 142.109 0.00811629 142.094 0.0237851C142.078 0.0397736 142.07 0.0634365 142.07 0.0950937V11.7859C142.07 11.8096 142.078 11.8316 142.094 11.8511C142.109 11.8709 142.133 11.8808 142.165 11.8808H144.894C144.925 11.8808 144.949 11.8709 144.965 11.8511C144.98 11.8313 144.988 11.8096 144.988 11.7859V0.0950937C144.988 0.0637563 144.98 0.0397736 144.965 0.0237851Z" fill="#1A2B6B"/>
<path d="M152.501 2.88714C152.383 2.75252 152.237 2.68505 152.064 2.68505H148.52C148.488 2.68505 148.463 2.67513 148.443 2.65531C148.424 2.6358 148.414 2.61374 148.414 2.59008V0.213868C148.414 0.190205 148.424 0.168461 148.443 0.148635C148.463 0.129129 148.488 0.118896 148.52 0.118896H152.265C153.21 0.118896 154.025 0.50326 154.71 1.27134L155.62 2.37615L153.848 4.5266L152.501 2.88714ZM159.045 1.25952C159.731 0.499103 160.55 0.118896 161.502 0.118896H165.236C165.267 0.118896 165.29 0.126891 165.306 0.142559C165.322 0.158548 165.33 0.182211 165.33 0.213868V2.59008C165.33 2.61374 165.322 2.6358 165.306 2.65531C165.29 2.67513 165.267 2.68505 165.236 2.68505H161.691C161.518 2.68505 161.373 2.75252 161.255 2.88714L158.643 6.04742L161.266 9.23138C161.384 9.35834 161.526 9.42164 161.691 9.42164H165.236C165.267 9.42164 165.29 9.43154 165.306 9.4514C165.322 9.4712 165.33 9.49712 165.33 9.52844V11.9047C165.33 11.9283 165.322 11.9504 165.306 11.9699C165.29 11.9897 165.267 11.9996 165.236 11.9996H161.502C160.55 11.9996 159.735 11.6156 159.057 10.8472L156.884 8.2097L154.71 10.8472C154.025 11.6156 153.206 11.9996 152.253 11.9996H148.52C148.488 11.9996 148.464 11.9897 148.449 11.9699C148.433 11.95 148.425 11.9245 148.425 11.8925V9.51632C148.425 9.49262 148.433 9.4709 148.449 9.45104C148.464 9.43124 148.488 9.42134 148.52 9.42134H152.064C152.229 9.42134 152.375 9.35414 152.501 9.2192L155.064 6.10658L159.045 1.25952Z" fill="#1A2B6B"/>
</g>
<defs>
<clipPath id="clip0_2576_1520">
<rect width="164.4" height="12" fill="white" transform="translate(0.929688)"/>
</clipPath>
</defs>
</svg>
