<svg width="136" height="30" viewBox="0 0 136 30" fill="none" xmlns="http://www.w3.org/2000/svg">
<g opacity="0.5">
<mask id="mask0_2576_1565" style="mask-type:luminance" maskUnits="userSpaceOnUse" x="0" y="0" width="136" height="30">
<path d="M135.374 0H0.929688V30H135.374V0Z" fill="white"/>
</mask>
<g mask="url(#mask0_2576_1565)">
<path fill-rule="evenodd" clip-rule="evenodd" d="M132.91 17.0626C132.91 15.3083 131.876 13.9875 130.245 13.9875C128.614 13.9875 127.58 15.3083 127.58 17.0626C127.58 18.8169 128.614 20.1376 130.245 20.1376C131.88 20.141 132.91 18.8202 132.91 17.0626ZM132.83 12.8103V8.21445C132.83 7.91095 133.033 7.64748 133.326 7.57077L135.764 6.92041V22.4722H133.06V21.1515C132.38 22.142 131.159 22.7223 129.631 22.7223C126.493 22.7223 124.655 20.2043 124.655 17.066C124.655 13.9275 126.493 11.4095 129.631 11.4095C131.155 11.4062 132.273 12.0665 132.83 12.8103ZM116.191 11.653V12.9738C116.687 12.0432 117.802 11.4029 119.412 11.4029C122.014 11.4029 123.397 13.1371 123.397 15.7185V22.4722H120.466V16.0521C120.466 14.7913 119.93 13.9242 118.629 13.9242C117.204 13.9242 116.421 14.8314 116.421 16.2789V22.4722H113.49V11.653H116.191ZM106.635 22.7223C103.477 22.7223 101.719 21.3583 101.719 17.8496V11.653H104.651V17.8898C104.651 19.3972 105.331 20.0975 106.632 20.0975C107.933 20.0975 108.613 19.3939 108.613 17.8898V11.653H111.545V17.8463C111.551 21.3583 109.794 22.7223 106.635 22.7223ZM92.0409 17.0626C92.0409 19.0036 93.2383 20.1376 94.7857 20.1376C96.3333 20.1376 97.5306 19.0003 97.5306 17.0626C97.5306 15.1249 96.3333 13.9875 94.7857 13.9875C93.2416 13.9875 92.0409 15.1215 92.0409 17.0626ZM94.789 22.7223C91.3205 22.7223 89.1093 20.141 89.1093 17.066C89.1093 13.991 91.3171 11.4095 94.789 11.4095C98.2576 11.4095 100.469 13.991 100.469 17.066C100.465 20.141 98.2576 22.7223 94.789 22.7223ZM80.1745 17.0626C80.1745 18.8169 81.2084 20.1376 82.8393 20.1376C84.4701 20.1376 85.504 18.8169 85.504 17.0626C85.504 15.3083 84.4701 13.9875 82.8393 13.9875C81.2084 13.9875 80.1745 15.3083 80.1745 17.0626ZM80.2578 21.3182V25.8173C80.2578 26.1209 80.0544 26.3843 79.7609 26.461L77.3263 27.1014V11.653H80.031V12.9738C80.7114 11.9832 81.932 11.4029 83.4596 11.4029C86.5979 11.4029 88.4356 13.9209 88.4356 17.0593C88.4356 20.1976 86.5979 22.7156 83.4596 22.7156C81.9287 22.7223 80.8148 22.062 80.2578 21.3182ZM68.6181 16.3189V22.4722H65.6866V16.0521C65.6866 14.8548 65.253 13.9242 63.9523 13.9242C62.5883 13.9242 61.8445 14.8114 61.8445 16.2589V22.4755H58.9129V11.653H61.6177V12.9738C62.1146 12.0432 63.1886 11.4029 64.736 11.4029C66.2035 11.4029 67.2541 11.9799 67.8745 12.9303C68.8249 11.8764 69.9189 11.4029 71.4664 11.4029C74.0678 11.4029 75.3885 13.2005 75.3885 15.7185V22.4722H72.4569V16.0521C72.4569 14.8548 72.0234 13.9242 70.7226 13.9242C69.3386 13.9242 68.6181 14.8114 68.6181 16.3189ZM49.1309 17.0626C49.1309 19.0036 50.3283 20.1376 51.8757 20.1376C53.4233 20.1376 54.6206 19.0003 54.6206 17.0626C54.6206 15.1249 53.4233 13.9875 51.8757 13.9875C50.3283 13.9875 49.1309 15.1215 49.1309 17.0626ZM51.8757 22.7223C48.4071 22.7223 46.196 20.141 46.196 17.066C46.196 13.991 48.4038 11.4095 51.8757 11.4095C55.3476 11.4095 57.5555 13.991 57.5555 17.066C57.5555 20.141 55.3443 22.7223 51.8757 22.7223ZM30.9844 15.1215C30.9844 10.539 34.1428 7.50073 38.355 7.50073C42.0104 7.50073 44.9019 9.66858 45.4589 13.2405H42.2372C41.8036 11.4029 40.3162 10.369 38.355 10.369C35.6703 10.369 34.1628 12.2266 34.1628 15.1182C34.1628 18.0098 35.6703 19.8674 38.355 19.8674C40.3162 19.8674 41.8036 18.8335 42.2372 16.9959H45.4589C44.9019 20.5679 42.0104 22.7356 38.355 22.7356C34.1428 22.7423 30.9844 19.7073 30.9844 15.1215Z" fill="#1A2B6B"/>
<path fill-rule="evenodd" clip-rule="evenodd" d="M2.13368 23.3809C1.3866 22.9239 0.929688 22.1102 0.929688 21.2363V16.357C0.929688 16.1702 0.979715 15.9902 1.0731 15.8301C1.36326 15.3298 2.00694 15.1598 2.50721 15.4532L13.5199 21.8733C14.1636 22.2502 14.5605 22.9373 14.5605 23.6843V28.7404C14.5605 28.9706 14.497 29.2007 14.377 29.3974C14.0135 29.9911 13.2397 30.1779 12.646 29.8143L2.13368 23.3809ZM18.5492 14.1158C19.1929 14.4927 19.5898 15.1798 19.5898 15.9268V26.1857C19.5898 26.4892 19.4264 26.7693 19.1629 26.9161L16.7516 28.2736C16.7216 28.2902 16.6882 28.3036 16.6549 28.3136V22.6171C16.6549 21.88 16.268 21.1963 15.6344 20.8161L5.96242 15.0297V8.5995C5.96242 8.41272 6.01245 8.23263 6.10583 8.07254C6.39599 7.57227 7.03968 7.40218 7.53994 7.69567L18.5492 14.1158ZM23.3686 6.53838C24.0156 6.91191 24.4125 7.60562 24.4125 8.3527V23.3376C24.4125 23.6443 24.2424 23.9278 23.9722 24.0746L21.6876 25.3086V14.8762C21.6876 14.1392 21.3008 13.4588 20.6705 13.0786L10.785 7.14871V1.04873C10.785 0.861959 10.8351 0.681861 10.9251 0.521773C11.2153 0.0215018 11.859 -0.14859 12.3592 0.141567L23.3686 6.53838Z" fill="#1A2B6B"/>
</g>
</g>
</svg>
