<svg width="59" height="34" viewBox="0 0 59 34" fill="none" xmlns="http://www.w3.org/2000/svg">
<g opacity="0.5" clip-path="url(#clip0_2576_1532)">
<path d="M10.1387 6.23224L10.1498 6.34724C10.3908 6.48963 10.5168 6.60464 10.7631 6.76346C11.4094 7.1742 12.2036 7.90257 12.1049 10.4053C12.2911 10.953 12.3733 12.0209 12.5376 12.3605C12.8717 13.0341 13.1017 13.4722 13.2002 14.102C13.2002 14.102 13.2989 15.0878 13.4248 15.1589C14.0928 15.3123 13.9013 15.378 13.9943 15.4985C14.0983 15.6299 14.4872 15.6245 14.4872 15.9859C14.6241 16.1666 14.7282 16.3474 14.7993 16.5445V3.52684C14.7993 2.03723 13.5945 0.832397 12.1103 0.832397H9.54171C9.95245 0.980263 10.1879 1.15551 10.3249 1.42934C10.6534 1.45672 11.0424 2.19605 10.4344 3.29683C10.7027 3.48303 10.4945 3.75685 10.3029 4.06902C10.2426 4.16759 10.1824 4.34832 10.0017 4.33736C9.76069 4.83573 9.48132 5.30671 9.26789 5.33409C9.20772 5.41076 9.16376 5.62434 9.25686 5.72292C9.56925 5.86531 9.94697 6.05151 10.1387 6.23224Z" fill="#1A2B6B"/>
<path d="M12.5401 33.1328L12.5128 33.1383C13.6902 32.4209 12.9618 31.0628 12.7374 30.2632L12.7811 30.1262C12.8413 30.0166 12.7155 29.7593 12.7155 29.7593C12.5677 29.6388 12.5347 28.9708 12.458 28.6641C12.3322 28.1657 12.6825 27.295 12.6825 26.9992C12.6825 26.7033 12.458 26.2982 12.0528 25.7834C11.9541 25.6684 11.6584 23.1438 11.3955 22.503C11.0286 21.6212 10.919 21.7635 10.481 20.7067C10.1469 19.9673 10.4098 18.8776 9.65409 16.3474L9.82379 16.1886C9.82379 16.1886 9.22137 13.987 9.02414 13.3846C8.83238 12.7822 8.47656 12.7439 8.47656 12.7439L8.49839 12.4317C8.52585 12.3386 9.23225 10.504 9.29249 10.4437C9.29789 10.4054 10.3111 9.70989 10.3275 9.81394C10.4095 10.263 10.8039 12.5467 10.9736 12.9082C11.1434 13.2751 11.7295 14.3923 11.9978 15.0878C10.9518 15.3452 10.1686 16.2927 10.1686 17.4154C10.1686 18.7407 11.242 19.8195 12.5674 19.8195C13.5804 19.8195 14.4568 19.1898 14.8072 18.3026L14.8017 30.477C14.8019 31.824 13.8326 32.9357 12.5401 33.1328Z" fill="#1A2B6B"/>
<path d="M8.70314 0.832397C7.8269 1.17194 7.70642 1.54982 7.67364 2.7656C7.52577 2.78203 7.21901 2.63965 7.32314 3.37897C7.32314 3.37897 7.3779 3.87186 7.57506 3.78971C7.42172 4.86311 7.54357 5.13176 6.83033 5.20813C6.67699 5.22456 6.49071 5.23551 6.26077 5.24646L6.18958 5.34504C5.21476 5.43814 4.73191 5.37585 4.10295 6.20485C3.86199 6.52249 3.60459 6.97156 3.28695 7.61231C3.28695 7.61231 2.9967 8.32974 2.909 8.62547C2.62969 9.21145 1.94513 10.5094 1.7425 11.3418C1.67686 11.6266 1.55082 11.7142 1.73155 12.125C1.9999 12.7164 1.5563 12.8698 3.07877 12.8259V13.1764C3.07877 13.1764 2.67351 13.5269 2.58588 13.7351C2.50373 13.9486 2.26824 14.9946 2.27927 15.493C2.30658 16.7909 3.36362 17.8752 3.67571 19.1677L4.38218 19.2664C4.76553 20.1481 6.44135 22.5248 6.83025 22.9082C6.83573 22.9137 6.84121 22.9192 6.84668 22.9247C6.93423 23.1492 7.36695 23.4285 7.61879 23.7078C7.77221 23.8557 8.47876 24.6224 9.42064 25.3509C9.76642 25.6182 10.1382 25.882 10.5269 26.1066C10.5159 26.1011 10.7569 26.5831 10.8774 26.9773C10.3955 27.3661 11.3319 28.0782 11.6167 29.2556C11.6332 29.4143 11.3428 29.5733 11.7755 29.962C11.7482 31.7417 11.2061 32.673 12.1151 33.1657H4.10295C2.64628 33.1328 1.46875 31.939 1.46875 30.4767V3.52684C1.46875 2.05366 2.6462 0.865257 4.10295 0.832397H8.70314Z" fill="#1A2B6B"/>
<path fill-rule="evenodd" clip-rule="evenodd" d="M19.6562 0.81665V33.1278H23.1484C23.1576 24.8068 23.3462 16.4523 22.8342 8.22868L26.8603 33.1278H31.871V0.81665H28.4131C28.3427 9.38368 28.6469 17.831 29.2278 26.1899L25.0443 0.81665H19.6562Z" fill="#1A2B6B"/>
<path fill-rule="evenodd" clip-rule="evenodd" d="M49.9246 0.794434L46.4922 33.1327H50.7627L51.3215 26.5936H54.1153L54.6741 33.1327H58.9246L55.592 0.794434H49.9246ZM52.7184 9.92235L53.796 22.7996H51.6408L52.7184 9.92235Z" fill="#1A2B6B"/>
<path d="M34.5625 0.816667V33.1103H40.8087C41.8325 33.1103 45.3187 32.2156 45.3187 27.7318V21.2819C45.3187 20.6024 45.3244 18.4719 43.4628 17.2201C44.626 17.2201 45.3187 14.9634 45.3187 12.9128V5.99436C45.3187 3.29872 43.6408 0.809332 40.2698 0.816667H34.5625ZM38.414 4.94543H40.3098C41.1782 4.94543 41.4672 5.90419 41.4672 6.64157V14.1626C41.4672 15.4491 41.0443 15.5463 40.1701 15.5463H38.414V4.94543ZM38.414 19.0725H40.3098C41.1782 19.0725 41.4672 20.0313 41.4672 20.7686V27.4863C41.4672 28.3615 41.0308 29.0262 40.1701 29.0262L38.414 29.0484V19.0725Z" fill="#1A2B6B"/>
</g>
<defs>
<clipPath id="clip0_2576_1532">
<rect width="58.2877" height="34" fill="white" transform="translate(0.640625)"/>
</clipPath>
</defs>
</svg>
