<svg width="101" height="26" viewBox="0 0 101 26" fill="none" xmlns="http://www.w3.org/2000/svg">
<g opacity="0.5" clip-path="url(#clip0_2576_1485)">
<path d="M35.7558 26L17.9052 0L0 26H24.946L17.9052 16.0771L14.4126 21.2329H10.7007L17.9075 10.8666L28.326 26.0012L35.7558 26Z" fill="#1A2B6B"/>
<path d="M50.7123 12.8255C50.5088 12.8255 50.4216 12.9127 50.4216 13.1162V14.8607C50.4216 15.0643 50.5088 15.1515 50.7123 15.1515H56.4982V18.2092C55.8678 19.1754 54.9915 19.9563 53.9593 20.4716C52.927 20.9869 51.7762 21.2179 50.6251 21.1408C46.293 21.1408 43.6181 18.3545 43.6181 13C43.6181 7.67929 46.7582 4.85905 50.3343 4.85905C53.1207 4.85905 55.3933 5.96389 56.1202 8.63876C56.1324 8.72166 56.1747 8.79717 56.2391 8.85082C56.3034 8.90446 56.3853 8.93248 56.4691 8.9295H58.325C58.5285 8.9295 58.6448 8.84228 58.6448 8.63876C57.8598 4.56831 54.3709 2.53308 50.3295 2.53308C45.7939 2.53308 41.0547 6.02204 41.0547 13C41.0547 19.8906 45.537 23.4668 50.7365 23.4668C52.3046 23.5145 53.8581 23.1536 55.2446 22.4196C56.631 21.6856 57.8028 20.6037 58.6448 19.2801C58.8529 18.9504 58.9544 18.5646 58.9356 18.1752V13.1211C58.9356 12.9176 58.8484 12.8303 58.6448 12.8303L50.7123 12.8255ZM80.8918 3.11458C80.8918 2.91105 80.8046 2.82383 80.601 2.82383H77.839C77.7402 2.81393 77.6409 2.83711 77.5567 2.88973C77.4725 2.94235 77.4081 3.02143 77.3738 3.11458L71.7333 16.0528L66.0928 3.11458C66.0584 3.02143 65.9941 2.94235 65.9099 2.88973C65.8257 2.83711 65.7264 2.81393 65.6276 2.82383H62.8655C62.662 2.82383 62.5748 2.91105 62.5748 3.11458V22.8853C62.5748 23.0889 62.662 23.1761 62.8655 23.1761H64.7263C64.9298 23.1761 65.017 23.0889 65.017 22.8853V6.63261L70.7108 19.5127C70.7394 19.5898 70.791 19.6562 70.8586 19.703C70.9262 19.7499 71.0066 19.7747 71.0888 19.7743H72.3778C72.46 19.7747 72.5404 19.7499 72.608 19.703C72.6756 19.6562 72.7272 19.5898 72.7557 19.5127L78.4495 6.63261V22.8853C78.4495 23.0889 78.5367 23.1761 78.7403 23.1761H80.601C80.8046 23.1761 80.8918 23.0889 80.8918 22.8853V3.11458ZM87.2301 3.11458C87.0265 2.8529 87.0265 2.82383 86.823 2.82383H84.5843C84.3807 2.82383 84.2935 2.9692 84.3807 3.11458L90.5446 12.4427L83.6248 22.8853C83.5376 23.0307 83.6248 23.1761 83.8283 23.1761H86.0089C86.2125 23.1761 86.2706 23.147 86.4741 22.8853L92.0031 14.5748L97.5225 22.8853C97.726 23.147 97.7842 23.1761 97.9877 23.1761H100.168C100.372 23.1761 100.459 23.0307 100.372 22.8853L93.4569 12.4475L99.6207 3.11942C99.7079 2.97405 99.6207 2.82867 99.4172 2.82867H97.1736C96.9701 2.82867 96.9701 2.85775 96.7665 3.11942L92.0031 10.296L87.2301 3.11458Z" fill="#1A2B6B"/>
</g>
<defs>
<clipPath id="clip0_2576_1485">
<rect width="100.402" height="26" fill="white"/>
</clipPath>
</defs>
</svg>
