<svg width="132" height="20" viewBox="0 0 132 20" fill="none" xmlns="http://www.w3.org/2000/svg">
<g opacity="0.5" clip-path="url(#clip0_2576_1476)">
<path d="M3.56848 4.6655V19.0605H0.78125V2.33807C0.78125 0.997039 2.31328 0.232601 3.38478 1.03895L16.6241 11.0021C17.0323 11.3093 17.2724 11.7904 17.2724 12.3012V19.0605H14.4852V12.8808L3.56848 4.6655Z" fill="#1A2B6B"/>
<path d="M48.5199 3.26636C47.4259 3.26636 46.5391 4.15319 46.5391 5.24717V17.7707H49.1112V6.92051L52.579 12.5794C52.9739 13.2237 53.6751 13.6164 54.4309 13.6164C55.1846 13.6164 55.8847 13.2254 56.28 12.5835L59.7675 6.92051V17.7707H62.3397V5.15517C62.3397 4.112 61.4942 3.26636 60.4508 3.26636C59.781 3.26636 59.1611 3.62122 58.8219 4.19899L54.4801 11.5954L50.2345 4.25538C49.8805 3.64328 49.2269 3.26636 48.5199 3.26636Z" fill="#1A2B6B"/>
<path fill-rule="evenodd" clip-rule="evenodd" d="M74.2171 3.26636C73.3672 3.26636 72.6035 3.78529 72.2904 4.57547L67.0625 17.7707H69.5529L71.176 13.9737H77.0961L78.7189 17.7707H81.3626L76.1445 4.57664C75.8316 3.78585 75.0677 3.26636 74.2171 3.26636ZM74.136 6.23664L76.1979 11.6158H72.064L74.136 6.23664Z" fill="#1A2B6B"/>
<path d="M88.3224 9.91122L94.5958 3.60858C94.8139 3.38951 95.1102 3.26636 95.4194 3.26636C96.4558 3.26636 96.9737 4.52052 96.2393 5.25177L91.262 10.2072L98.6008 17.7707H95.2631L88.3224 10.7482V17.7707H85.75V4.55246C85.75 3.84215 86.3258 3.26636 87.0361 3.26636C87.7466 3.26636 88.3224 3.84215 88.3224 4.55246V9.91122Z" fill="#1A2B6B"/>
<path d="M103.156 15.448C103.156 16.7308 104.196 17.7707 105.479 17.7707H112.149C112.803 17.7707 113.333 17.2406 113.333 16.5867C113.333 15.9328 112.803 15.4026 112.149 15.4026H105.739V11.4831H111.587C112.241 11.4831 112.771 10.953 112.771 10.2991C112.771 9.64515 112.241 9.11504 111.587 9.11504H105.739V5.63441H112.149C112.803 5.63441 113.333 5.10431 113.333 4.45037C113.333 3.79647 112.803 3.26636 112.149 3.26636H105.479C104.196 3.26636 103.156 4.30625 103.156 5.58905V15.448Z" fill="#1A2B6B"/>
<path fill-rule="evenodd" clip-rule="evenodd" d="M130.425 7.42066C130.425 7.88339 130.368 8.3257 130.252 8.74759C130.143 9.16268 129.966 9.56416 129.721 9.95203C129.483 10.3399 129.153 10.6869 128.731 10.9932C128.316 11.2994 127.823 11.5375 127.251 11.7077L131.63 17.7707H128.282L124.22 12.1466H121.76V17.7707H119.188V5.58905C119.188 4.30625 120.227 3.26636 121.51 3.26636H125.363C125.669 3.26636 125.948 3.27655 126.2 3.29697C126.458 3.31058 126.768 3.35141 127.129 3.41945C127.496 3.4807 127.819 3.56575 128.098 3.67464C128.384 3.78351 128.677 3.94342 128.976 4.15437C129.282 4.36532 129.534 4.61368 129.731 4.89949C129.936 5.17849 130.102 5.53575 130.231 5.97125C130.361 6.39995 130.425 6.8831 130.425 7.42066ZM121.76 5.62419V9.77852H124.128C124.536 9.77852 124.897 9.76491 125.21 9.73769C125.523 9.71046 125.846 9.65602 126.179 9.57438C126.513 9.48591 126.785 9.36682 126.996 9.21712C127.214 9.06743 127.391 8.85987 127.527 8.59448C127.67 8.32909 127.741 8.01608 127.741 7.65544C127.741 6.30128 126.697 5.62419 124.608 5.62419H121.76Z" fill="#1A2B6B"/>
<path d="M33.0633 19.0608V4.66574L22.1466 12.881V19.0608H19.3594V12.3015C19.3594 11.7907 19.5994 11.3095 20.0076 11.0024L33.247 1.03919C34.3185 0.232845 35.8505 0.997283 35.8505 2.33832V19.0608H33.0633Z" fill="#1A2B6B"/>
</g>
<defs>
<clipPath id="clip0_2576_1476">
<rect width="131" height="18.5816" fill="white" transform="translate(0.78125 0.709229)"/>
</clipPath>
</defs>
</svg>
