<svg width="117" height="28" viewBox="0 0 117 28" fill="none" xmlns="http://www.w3.org/2000/svg">
<g opacity="0.5" clip-path="url(#clip0_2576_1545)">
<path fill-rule="evenodd" clip-rule="evenodd" d="M107.684 19.3689L107.603 18.6946C107.586 18.582 107.206 15.9246 109.01 14.0554C109.535 13.51 110.168 13.1977 110.747 13.1977C111.241 13.1977 111.647 13.4131 111.853 13.8241C112.85 15.8129 107.684 19.3689 107.684 19.3689ZM99.8307 15.1811L99.7619 14.0591L99.7515 13.9182C99.7494 13.8831 99.4993 10.3336 99.7222 7.80714C99.9668 5.05952 100.77 3.28449 101.767 3.28449C101.971 3.28449 102.166 3.38935 102.319 3.58076C102.817 4.20178 102.962 5.85827 102.651 7.35071C102.15 9.734 101.355 11.6239 100.773 13.0078C100.609 13.3991 100.463 13.7453 100.349 14.0462L99.8307 15.1811ZM94.3828 22.6644C93.1097 22.6644 92.5085 21.4424 92.5085 20.2936C92.5085 14.3661 95.7738 13.1977 97.2015 13.653C97.2015 13.653 97.2484 14.7789 97.3635 16.2279C97.4635 17.4862 97.5537 18.9757 97.575 19.1042C97.575 19.1042 96.3887 22.6644 94.3828 22.6644ZM84.0052 13.8834C84.0052 13.8834 83.6422 22.6644 80.3366 22.6644C78.7529 22.6644 78.6301 20.8948 78.6301 20.3518C78.6301 14.0893 83.3689 12.9743 84.0052 13.8834ZM53.422 22.8744C51.5256 22.8744 50.8504 20.9874 50.8504 19.2215C50.8504 16.0043 52.7199 13.5086 54.3274 13.5086C55.8933 13.5086 56.462 15.6659 56.462 17.1154C56.462 20.3448 55.1263 22.8744 53.422 22.8744ZM23.2452 15.4058C22.1581 17.1013 19.682 18.7787 18.9625 19.046C18.9625 19.046 18.4459 15.725 21.1493 13.7858C23.1302 12.3649 24.031 14.1804 23.2452 15.4058ZM105.93 23.1934C106.702 24.414 108.077 25.0085 110.022 25.0085C112.159 25.0085 114.371 23.3962 115.637 21.8946C116.389 21.0039 116.47 20.4922 116.154 20.2125C115.866 19.9584 115.23 20.291 114.648 20.8197C113.863 21.5324 112.199 22.5572 110.744 22.5572C108.979 22.5572 108.175 21.406 108.175 21.406C111.769 19.2057 114.416 16.7082 114.416 14.5646C114.416 12.1622 112.641 11.0879 110.882 11.0879C107.734 11.0879 104.337 13.9742 104.337 18.6378C104.337 20.1791 104.854 21.4886 104.854 21.4886C104.854 21.4886 104.229 22.4631 102.245 22.2985C100.136 22.1237 100.269 18.2966 100.269 18.2966C100.269 18.2966 100.915 17.0895 101.158 16.6399C102.586 14.0079 104.54 10.404 104.856 6.08259C105.032 3.66121 104.348 2.36092 103.744 1.69607C103.206 1.10408 102.488 0.751221 101.822 0.751221C99.3827 0.751221 97.6899 3.26378 97.2795 5.74564C96.8783 8.17941 97.0399 11.7997 97.0399 11.7997C97.0399 11.7997 94.8479 11.2557 92.6479 12.7538C90.6351 14.1244 89.7421 16.8674 89.461 18.2518C89.333 18.8714 89.2896 19.5216 89.3313 20.1833C89.3506 20.492 89.4449 21.0864 89.4449 21.0864C89.4449 21.0864 88.7211 22.6171 87.4351 22.6171C85.3632 22.6171 86.7309 12.9761 86.8104 12.4339C86.8744 11.9973 87.14 11.0654 85.6784 11.0001C84.7952 10.9607 84.4269 11.2917 84.3591 11.7237L84.2998 12.1539C84.2998 12.1539 81.3039 10.1076 77.9122 13.793C76.1053 15.7532 75.4493 18.5897 75.4196 20.8656L75.418 21.0089C75.418 21.0089 74.6749 23.1658 72.9454 22.8429C71.794 22.628 71.6491 20.5715 71.6491 19.7767C71.6491 18.2518 71.9989 16.5526 72.2805 15.1872C72.4583 14.3219 72.6124 13.5759 72.6124 13.1677C72.6124 11.7097 72.2053 11.0879 71.2523 11.0879C69.9552 11.0879 68.7909 12.1197 67.5011 13.7126C65.8551 15.7454 64.6305 18.9215 64.6305 18.9215C64.6305 18.9215 64.6844 18.3537 64.7694 17.8063C64.8245 17.4524 64.9742 15.8129 65.2505 14.3241C65.4037 13.5001 65.4595 12.8254 65.4693 12.7527C65.5177 12.3492 65.4268 12.0008 65.2073 11.745C64.9913 11.4937 64.6608 11.3491 64.3011 11.3491C63.7248 11.3491 62.9833 11.7358 62.6311 12.821C62.4702 13.3111 62.3779 13.6724 62.2633 14.2544L62.1553 14.7944L61.7546 14.4275C60.1672 12.9702 57.9683 11.2335 54.8151 11.2335C50.3745 11.2335 47.9779 15.3603 47.9779 19.2444C47.9779 19.723 48.0076 20.1794 48.065 20.6022L48.0874 20.769C48.0874 20.769 47.1605 23.0223 45.5334 22.6117C44.8211 22.432 44.3823 21.6693 44.3823 19.8532C44.3823 18.3423 44.6847 16.2891 44.8655 15.0571C44.9267 14.6389 44.9757 14.3088 44.9892 14.1549L45.0294 13.6992C45.1537 12.3277 45.1887 11.7082 44.7361 11.4095C44.4033 11.1928 44.0525 11.0879 43.6653 11.0879C43.2931 11.0879 42.9997 11.261 42.7384 11.4478C42.3364 11.7365 41.0214 13.494 38.5377 17.5635C38.4975 17.6293 38.4744 17.6645 38.4721 17.6676L38.2011 18.1914L37.5496 19.6318L37.9048 17.5389L37.9272 17.4019C37.9851 17.0498 38.0879 16.4293 38.1304 16.2318L38.2346 15.7776C38.4022 15.0485 38.7514 13.5322 38.7976 13.2643C38.9471 12.376 38.8882 11.7825 38.6173 11.451C38.417 11.2067 38.082 11.0879 37.5928 11.0879C36.6918 11.0879 35.9666 11.7755 34.7165 13.8133C34.5215 14.132 33.7912 15.348 33.2141 16.3106C32.4665 17.5581 31.7883 18.481 31.7883 18.481L31.946 16.813C32.0667 16.064 32.5186 12.624 32.5247 12.4626C32.5231 11.7372 32.1657 11.3995 31.3995 11.3995C31.0877 11.3995 30.3273 11.4685 30.0088 12.1071C29.7168 12.6908 28.9067 15.3345 28.5127 19.3774C28.5127 19.3774 25.3775 22.424 22.0254 22.424C20.7902 22.424 19.8126 21.9388 19.4583 20.9908C19.4583 20.9908 21.2516 20.0502 22.1031 19.455C24.2838 17.9312 25.8701 16.3782 25.8701 14.3841C25.8701 11.9442 23.6429 10.8455 21.8029 11.0879C18.643 11.5042 15.9723 14.8455 15.9723 18.7266C15.9723 22.3774 17.9877 25.0085 21.4953 25.0085C25.5579 25.0085 28.3622 21.6271 28.3622 21.6271L28.2777 23.1706C28.2255 23.9751 28.554 25.0085 29.8918 25.0085C30.247 25.0085 30.8955 24.8944 31.2402 24.1303C33.3213 19.5416 35.5007 15.9024 35.5222 15.8665L35.5967 15.7424L35.9748 15.0103L36.5378 14.0623L36.0866 16.097C36.0047 16.5611 35.287 20.6895 35.1842 22.5098C35.1313 23.4288 35.1305 24.3331 35.4865 24.7206C35.6667 24.9175 35.9563 25.0085 36.397 25.0085C37.3821 25.0085 37.9933 24.6647 38.2138 23.9862C39.8175 19.0966 41.5457 15.7975 41.6186 15.659L41.6863 15.531L42.5932 13.746C42.5932 13.746 41.8778 17.8182 41.8778 20.5952C41.8778 21.9225 42.1366 24.3389 44.0109 24.7979C46.8961 25.5047 48.6687 22.4921 48.6687 22.4921L48.8565 23.0199C49.6799 24.4143 51.0485 25.1519 52.8145 25.1519C56.4739 25.1519 58.8387 22.2838 58.8387 17.8446C58.8387 15.0903 57.5804 13.5125 57.5804 13.5125C57.5804 13.5125 58.977 14.007 60.0026 14.7478C61.1137 15.5503 61.9029 16.4003 61.9029 16.4003L61.8753 16.5817C61.8425 16.7931 61.8128 17.0059 61.7829 17.2212C61.6675 18.0728 61.5657 18.9657 61.4793 19.8762C61.3996 20.7246 61.3585 21.4919 61.3585 22.1561C61.3585 22.5596 61.3802 22.9317 61.4263 23.2947C61.4665 23.6332 61.5491 23.9418 61.6705 24.2098C61.7093 24.2917 62.0734 25.0085 62.9936 25.0085C63.6078 25.0085 64.0021 24.7846 64.293 24.1027C67.1367 17.4329 69.4147 15.2954 69.6149 15.0829C70.1427 14.5228 69.9045 15.5654 69.9045 15.5654L69.8837 15.7027C69.88 15.7249 69.5285 17.9839 69.4496 18.6709C69.3699 19.3485 69.3298 19.9956 69.3298 20.5952C69.3298 22.4531 69.7419 24.5704 71.8987 24.905C74.8469 25.3625 75.8685 23.0404 75.8685 23.0404C75.8685 23.0404 76.9351 25.0085 79.4537 25.0085C83.1469 25.0085 84.2902 22.1668 84.2902 22.1668C84.6791 23.8765 85.3714 24.7979 87.0367 24.7979C88.8392 24.7979 90.0913 22.7597 90.0913 22.7597C90.0913 22.7597 91.1339 25.0085 93.6818 25.0085C96.631 25.0085 98.1387 22.7418 98.2006 22.6469L98.5428 22.1085C98.5428 22.1085 99.503 24.554 101.979 24.6945C104.321 24.8273 105.93 23.1934 105.93 23.1934ZM4.7429 24.067C2.13898 23.9701 1.99533 21.9382 4.38681 21.4135C6.57206 20.9342 8.39464 21.7015 8.39464 21.7015C8.39464 21.7015 7.84317 24.1826 4.7429 24.067ZM16.3061 3.52676C17.8107 3.65085 17.6976 5.75156 17.2882 7.06868C16.0884 10.9298 13.2185 11.045 13.2185 11.045C13.2185 11.045 14.1264 3.347 16.3061 3.52676ZM12.9643 12.8901C12.9643 12.8901 17.7883 12.9223 19.4313 7.21127C20.3874 3.88757 19.0334 1.05489 16.2103 0.994968C13.3596 0.934494 11.1513 3.46777 10.1164 11.0391C10.1164 11.0391 7.36104 10.6742 6.14379 8.49325C5.56797 7.4613 4.69916 7.94159 4.9701 8.92231C5.88601 12.2386 9.94274 12.7725 9.94274 12.7725C9.94274 12.7725 9.77474 14.2406 9.52389 16.0376C9.28051 17.781 8.86273 19.9745 8.86273 19.9745C8.86273 19.9745 6.30326 19.1623 3.58005 19.7332C-0.604854 20.6107 -1.0653 25.8186 4.05543 26.3329C10.0604 26.9358 11.1943 22.7684 11.1943 22.7684C11.1943 22.7684 12.374 23.3435 14.0482 24.846C15.9035 26.511 16.7513 27.5437 17.136 27.1736C17.5577 26.7678 16.6288 25.351 14.9092 23.5444C12.9632 21.4999 11.6163 20.9723 11.6163 20.9723C11.6163 20.9723 11.9383 19.6198 12.2892 17.4254C12.6608 15.1025 12.9643 12.8901 12.9643 12.8901Z" fill="#1A2B6B"/>
</g>
<defs>
<clipPath id="clip0_2576_1545">
<rect width="116" height="26.4975" fill="white" transform="translate(0.328125 0.751221)"/>
</clipPath>
</defs>
</svg>
