<svg width="84" height="24" viewBox="0 0 84 24" fill="none" xmlns="http://www.w3.org/2000/svg">
<g opacity="0.5" clip-path="url(#clip0_2576_1504)">
<path d="M51.1264 22.3226L43.1151 2.87427C43.0522 2.69695 43.0189 2.51044 43.0167 2.32227C43.0017 1.92436 43.1431 1.5364 43.4103 1.24144C43.5478 1.10065 43.7136 0.990883 43.8969 0.91952C44.0802 0.848149 44.2766 0.816829 44.4729 0.82765C44.7705 0.831531 45.0594 0.927829 45.2999 1.10324C45.5519 1.29072 45.749 1.54253 45.8704 1.83234L53.4881 20.8668L61.1058 1.83234C61.2273 1.54253 61.4243 1.29072 61.6764 1.10324C61.9169 0.927829 62.2058 0.831531 62.5033 0.82765C62.6997 0.816829 62.8961 0.848149 63.0794 0.91952C63.2626 0.990883 63.4285 1.10065 63.5659 1.24144C63.8339 1.53702 63.9752 1.926 63.9595 2.32475C63.9573 2.51292 63.9241 2.69943 63.8611 2.87675L55.8498 22.325C55.7127 22.7527 55.4455 23.127 55.0855 23.3954C54.7255 23.6637 54.2908 23.813 53.8421 23.8221H53.1334C52.6844 23.8126 52.2497 23.6629 51.8898 23.3941C51.53 23.1252 51.2631 22.7506 51.1264 22.3226Z" fill="#1A2B6B"/>
<path d="M67.3671 23.2278C67.2311 23.0908 67.1244 22.9276 67.0533 22.7481C66.9822 22.5685 66.9483 22.3764 66.9537 22.1834V2.48185C66.9464 2.0865 67.0949 1.70417 67.3671 1.41758C67.5003 1.27521 67.6622 1.16294 67.8422 1.0883C68.0222 1.01365 68.216 0.978342 68.4107 0.984748H81.425C81.609 0.979608 81.792 1.01387 81.9616 1.08523C82.1313 1.1566 82.2839 1.26341 82.409 1.39854C82.5425 1.52495 82.6482 1.67781 82.7194 1.84737C82.7906 2.01693 82.8258 2.19947 82.8225 2.38337C82.8274 2.56471 82.7933 2.74501 82.7218 2.91177C82.6505 3.07852 82.5437 3.22776 82.409 3.34916C82.2789 3.47633 82.125 3.57657 81.9562 3.64417C81.7873 3.71177 81.6068 3.74538 81.425 3.74309H69.9066V10.9158H80.2606C80.4446 10.9107 80.6276 10.9449 80.7973 11.0164C80.967 11.0877 81.1195 11.1945 81.2447 11.3296C81.3766 11.4571 81.4813 11.6102 81.5524 11.7796C81.6234 11.9488 81.6594 12.1308 81.6582 12.3144C81.6633 12.4958 81.6289 12.676 81.5575 12.8428C81.4862 13.0095 81.3794 13.1588 81.2447 13.2802C81.1145 13.4073 80.9607 13.5076 80.7919 13.5752C80.623 13.6428 80.4425 13.6764 80.2606 13.6742H69.9066V20.8849H81.425C81.609 20.8798 81.792 20.914 81.9616 20.9854C82.1313 21.0567 82.2839 21.1636 82.409 21.2987C82.5425 21.4251 82.6482 21.5779 82.7194 21.7475C82.7906 21.9171 82.8258 22.0997 82.8225 22.2835C82.8274 22.4649 82.7933 22.6451 82.7218 22.8119C82.6505 22.9786 82.5437 23.1279 82.409 23.2493C82.2789 23.3765 82.125 23.4768 81.9562 23.5443C81.7873 23.6119 81.6068 23.6455 81.425 23.6433H68.4107C68.2167 23.6575 68.022 23.6275 67.8412 23.5555C67.6605 23.4836 67.4984 23.3715 67.3671 23.2278Z" fill="#1A2B6B"/>
<path d="M44.9288 21.7705L36.9175 2.32226C36.7799 1.89499 36.5124 1.52134 36.1526 1.25342C35.7926 0.985499 35.3581 0.836649 34.9097 0.827637H34.201C33.7522 0.836823 33.3175 0.986037 32.9576 1.25443C32.5977 1.52283 32.3304 1.89701 32.1932 2.32474L28.7094 10.7967H26.0715C25.691 10.7989 25.3266 10.9512 25.0576 11.2204C24.7886 11.4897 24.6364 11.8543 24.6343 12.2351V12.2549C24.6364 12.6357 24.7886 13.0004 25.0576 13.2697C25.3266 13.5389 25.691 13.6911 26.0715 13.6933H27.4888L24.1621 21.7714C24.0991 21.9487 24.0659 22.1352 24.0637 22.3234C24.048 22.7221 24.1894 23.1111 24.4573 23.4067C24.5947 23.5474 24.7606 23.6573 24.9439 23.7286C25.1272 23.7999 25.3236 23.8313 25.5199 23.8205C25.8174 23.8166 26.1064 23.7203 26.3468 23.5449C26.5989 23.3574 26.7959 23.1056 26.9174 22.8158L30.5791 13.6941H33.0987C33.4792 13.692 33.8435 13.5397 34.1126 13.2705C34.3816 13.0012 34.5338 12.6365 34.5359 12.2558V12.2152C34.5338 11.8345 34.3816 11.4698 34.1126 11.2005C33.8435 10.9313 33.4792 10.779 33.0987 10.7769H31.7409L34.5525 3.78295L42.1701 22.8174C42.2916 23.1073 42.4887 23.3591 42.7407 23.5465C42.9812 23.722 43.2701 23.8182 43.5677 23.8221C43.7641 23.833 43.9604 23.8016 44.1437 23.7303C44.3269 23.6589 44.4928 23.5491 44.6303 23.4083C44.8982 23.1127 45.0395 22.7237 45.0239 22.325C45.0328 22.1355 45.0004 21.9462 44.9288 21.7705Z" fill="#1A2B6B"/>
<path d="M20.9913 21.7705L12.98 2.32226C12.8424 1.89499 12.5749 1.52134 12.2151 1.25342C11.8551 0.985499 11.4206 0.836649 10.9722 0.827637H10.2635C9.81474 0.836823 9.38002 0.986037 9.02005 1.25443C8.66009 1.52283 8.39291 1.89701 8.25572 2.32474L4.77186 10.7967H2.13396C1.75346 10.7989 1.38916 10.9512 1.1201 11.2204C0.851038 11.4897 0.698922 11.8543 0.696751 12.2351V12.2549C0.698922 12.6357 0.851038 13.0004 1.1201 13.2697C1.38916 13.5389 1.75346 13.6911 2.13396 13.6933H3.55131L0.224574 21.7705C0.161644 21.9479 0.128395 22.1343 0.126169 22.3225C0.110552 22.7213 0.251885 23.1102 0.519788 23.4058C0.657196 23.5466 0.823098 23.6564 1.00637 23.7278C1.18963 23.7991 1.38604 23.8305 1.58239 23.8196C1.87991 23.8157 2.16888 23.7195 2.40932 23.5441C2.66136 23.3566 2.85843 23.1048 2.97991 22.8149L6.64155 13.6933H9.18106C9.56153 13.6911 9.92587 13.5389 10.195 13.2697C10.464 13.0004 10.6161 12.6357 10.6183 12.2549V12.2152C10.6161 11.8345 10.464 11.4698 10.195 11.2005C9.92587 10.9313 9.56153 10.779 9.18106 10.7769H7.82241L10.6174 3.78295L18.2351 22.8174C18.3566 23.1073 18.5537 23.3591 18.8057 23.5465C19.0462 23.722 19.3351 23.8182 19.6326 23.8221C19.829 23.833 20.0254 23.8016 20.2087 23.7303C20.3919 23.6589 20.5578 23.5491 20.6952 23.4083C20.9632 23.1127 21.1045 22.7237 21.0889 22.325C21.097 22.1353 21.0637 21.9461 20.9913 21.7705Z" fill="#1A2B6B"/>
</g>
<defs>
<clipPath id="clip0_2576_1504">
<rect width="83.52" height="24" fill="white" transform="translate(0.125)"/>
</clipPath>
</defs>
</svg>
