<svg width="94" height="16" viewBox="0 0 94 16" fill="none" xmlns="http://www.w3.org/2000/svg">
<g opacity="0.5" clip-path="url(#clip0_2576_1549)">
<path d="M34.383 3.96803V0.996948H20.3047V14.9469H34.383V11.7174H24.0493V9.26321H34.383V6.42225H24.0493V3.96803H34.383Z" fill="#1A2B6B"/>
<path d="M73.649 14.9469V0.996948H58.1484V14.9469H73.649ZM69.9027 4.35478V11.7174H61.7701V4.35478H69.9027Z" fill="#1A2B6B"/>
<path d="M48.8474 7.97104L55.1727 0.996948H50.398L46.2648 5.77526L42.1317 0.996948H37.3516L43.8106 7.97104L37.3516 14.9469H42.1317L46.2648 10.1668L50.398 14.9469H55.1763L48.8474 7.97104Z" fill="#1A2B6B"/>
<path d="M16.1719 0.996953H12.4255V8.61804L0.929688 0.608398V14.947H4.54415V7.32587L16.1701 15.3337L16.1719 0.996953Z" fill="#1A2B6B"/>
<path d="M77.7812 14.947H81.3957V7.19575L93.0216 15.3283V0.996953H89.4071V8.61804L77.7812 0.608398V14.947Z" fill="#1A2B6B"/>
</g>
<defs>
<clipPath id="clip0_2576_1549">
<rect width="92.1687" height="15" fill="white" transform="translate(0.90625 0.5)"/>
</clipPath>
</defs>
</svg>
