<svg width="108" height="20" viewBox="0 0 108 20" fill="none" xmlns="http://www.w3.org/2000/svg">
<g opacity="0.5">
<path d="M58.5453 8.95567C57.6189 8.60536 56.642 8.40665 55.6523 8.36719C54.5513 8.36719 53.6894 8.65574 53.6894 9.65804C53.6894 12.0271 59.7868 10.5692 59.7868 15.4441C59.7868 18.7433 57.1102 20 54.0919 20C52.7221 19.9976 51.36 19.7955 50.0485 19.4001L50.2877 16.5071C51.4713 16.8969 52.7027 17.123 53.9476 17.1791C55.117 17.1791 56.0737 16.7995 56.0737 15.7934C56.0737 13.2572 49.9802 14.8822 49.9802 10.0301C49.9802 6.99282 52.5353 5.75133 55.3562 5.75133C56.6564 5.73592 57.95 5.93869 59.1831 6.35119L58.5453 8.95567ZM47.4023 8.95567C46.4766 8.60721 45.5013 8.40855 44.5131 8.36719C43.412 8.36719 42.5274 8.65574 42.5274 9.65804C42.5274 12.0271 48.6476 10.5692 48.6476 15.4441C48.6476 18.7433 45.9482 20 42.9526 20C41.5682 19.9942 40.1915 19.7922 38.8637 19.4001L39.1257 16.5071C40.3174 16.8959 41.5561 17.122 42.8084 17.1791C43.9474 17.1791 44.9117 16.7995 44.9117 15.7934C44.9117 13.2572 38.7916 14.8822 38.7916 10.0301C38.7916 6.99282 41.3733 5.75133 44.1676 5.75133C45.4837 5.73926 46.793 5.94187 48.0439 6.35119L47.4023 8.95567ZM103.725 5.72855C106.383 5.72855 107.932 7.16367 107.932 10.2845V19.7039H104.393V11.0248C104.393 9.61628 103.987 8.68231 102.495 8.68231C101.003 8.68231 99.674 9.99594 99.674 12.3612V19.7266H96.2115V11.0248C96.2115 9.71119 95.7787 8.68231 94.2714 8.68231C92.6958 8.68231 91.4771 10.1402 91.4771 12.5055V19.7191H87.8931V6.01709C90.2318 5.72855 91.1164 6.68529 91.2151 8.21533C91.6289 7.4459 92.2477 6.80619 93.0031 6.36721C93.7584 5.92823 94.6206 5.70717 95.4939 5.72855C97.9541 5.72855 98.9336 7.09153 99.2905 8.38618C99.8866 7.02699 101.417 5.72855 103.736 5.72855H103.725ZM31.6501 6.01709C30.8908 10.0795 28.9242 16.4881 27.6827 19.7153H23.9544L21.3234 10.6034H21.2778L18.6468 19.7153H14.9413C13.7453 16.5337 11.5927 9.91241 10.9738 6.01709H14.4857L16.8054 15.4365H16.8548L19.6263 6.01709H23.1419L25.8413 15.3643H25.8907L28.2332 6.01709H31.6501ZM8.87049 8.95567C7.94403 8.60536 6.96717 8.40665 5.97748 8.36719C4.87646 8.36719 4.04121 8.65574 4.04121 9.65804C4.04121 12.0271 10.1158 10.5692 10.1158 15.4441C10.1158 18.7433 7.43917 20 4.42087 20C3.05231 19.9979 1.6914 19.7958 0.381277 19.4001L0.593886 16.5071C1.78559 16.8959 3.02436 17.122 4.2766 17.1791C5.44595 17.1791 6.4027 16.7995 6.4027 15.7934C6.4027 13.2572 0.328125 14.8822 0.328125 10.0301C0.328125 6.99282 2.88324 5.75133 5.70412 5.75133C7.0042 5.73805 8.29745 5.94076 9.53111 6.35119L8.87049 8.95567ZM79.1495 20C75.2542 20 72.5282 17.8739 72.5282 13.094C72.5282 8.81519 75.3985 5.72855 79.5557 5.72855C83.4283 5.72855 85.9378 7.9078 85.9378 12.5624C85.9378 17.0349 83.2157 19.9962 79.1495 19.9962V20ZM79.2938 8.74685C77.7182 8.74685 76.2109 9.91621 76.2109 12.9231C76.2109 15.5276 77.1905 16.9855 79.2482 16.9855C80.9947 16.9855 82.3349 15.577 82.3349 12.8092C82.3349 10.1516 81.3781 8.74685 79.2976 8.74685H79.2938ZM33.2523 19.7191H36.768V6.01709C35.1164 5.85004 33.2523 6.30563 33.2523 8.88733V19.7191ZM35.1734 4.29723C35.4667 4.30737 35.759 4.25878 36.0333 4.15433C36.3075 4.04988 36.5581 3.89167 36.7703 3.689C36.9825 3.48633 37.1521 3.24328 37.2691 2.97414C37.386 2.70501 37.448 2.4152 37.4514 2.12177C37.4277 1.55109 37.1844 1.01165 36.7722 0.616222C36.3601 0.220795 35.811 0 35.2398 0C34.6687 0 34.1196 0.220795 33.7075 0.616222C33.2953 1.01165 33.052 1.55109 33.0283 2.12177C33.0341 2.69173 33.261 3.23719 33.6612 3.64305C34.0614 4.04892 34.6036 4.28347 35.1734 4.29723ZM67.9723 19.9544C63.9061 19.9544 61.2523 17.9233 61.2523 13.0712C61.2523 8.95567 63.5303 5.77791 68.519 5.77791C69.6594 5.77999 70.7914 5.97379 71.8676 6.35119L71.1083 9.22143C70.3165 8.90969 69.476 8.74004 68.6253 8.72028C66.0664 8.72028 65.0147 10.3908 65.0147 12.8965C65.0147 15.3378 65.9715 16.9627 68.481 16.9627C69.4362 16.9544 70.3795 16.7503 71.2526 16.3628L71.6588 19.1837C70.9754 19.6203 69.5175 19.9544 67.9875 19.9544H67.9723Z" fill="#1A2B6B"/>
</g>
</svg>
