<svg width="114" height="131" viewBox="0 0 114 131" fill="none" xmlns="http://www.w3.org/2000/svg">
<g clip-path="url(#clip0_546_970)">
<path d="M56.72 0L0 32.75V98.24L56.72 130.99L113.44 98.24V32.75L56.72 0ZM92.34 75.04C92.34 75.04 92.04 76.06 91.37 76.74L67.95 100.16C67 101.11 65.61 101.49 64.3 101.14L32.31 92.57C31.01 92.22 29.99 91.2 29.64 89.9L21.07 57.91C20.72 56.61 21.09 55.22 22.05 54.26L45.47 30.84C45.94 30.37 46.53 30.04 47.15 29.87C47.78 29.7 48.46 29.69 49.12 29.87L81.11 38.44C82.32 38.77 83.29 39.67 83.69 40.84L92.41 73.41C92.52 73.96 92.49 74.52 92.35 75.05L92.34 75.04Z" fill="url(#paint0_linear_546_970)"/>
<path d="M92.3398 75.04L58.7798 66.04C57.4798 65.69 56.4598 64.67 56.1098 63.37L47.1398 29.86C46.5098 30.03 45.9298 30.36 45.4598 30.83L22.0398 54.25C21.0898 55.2 20.7098 56.59 21.0598 57.9L29.6298 89.89C29.9798 91.19 30.9998 92.21 32.2998 92.56L64.2898 101.13C65.5898 101.48 66.9798 101.11 67.9398 100.15L91.3598 76.73C92.0398 76.05 92.3298 75.03 92.3298 75.03L92.3398 75.04Z" fill="#0C162C"/>
<path d="M65 53.52C63.39 53.09 62.43 54.04 62.86 55.64C63.28 57.24 64.93 58.89 66.54 59.32C68.15 59.75 69.11 58.8 68.69 57.2C68.27 55.6 66.62 53.95 65.01 53.52H65Z" fill="#0C162C"/>
<path d="M73.6299 44.99C72.0199 44.56 71.0599 45.51 71.4899 47.11C71.9099 48.71 73.5599 50.36 75.1699 50.79C76.7799 51.22 77.7399 50.27 77.3199 48.67C76.8999 47.07 75.2499 45.42 73.6399 44.99H73.6299Z" fill="#0C162C"/>
<path d="M76.3101 56.23C74.7001 55.8 73.7401 56.75 74.1701 58.35C74.5901 59.95 76.2401 61.6 77.8501 62.03C79.4601 62.46 80.4201 61.51 80.0001 59.91C79.5801 58.31 77.9301 56.66 76.3201 56.23H76.3101Z" fill="#0C162C"/>
<path d="M62.02 42.4C60.41 41.97 59.45 42.92 59.88 44.52C60.3 46.12 61.95 47.77 63.56 48.2C65.17 48.63 66.13 47.68 65.71 46.08C65.29 44.48 63.64 42.83 62.03 42.4H62.02Z" fill="#0C162C"/>
</g>
<defs>
<linearGradient id="paint0_linear_546_970" x1="85.08" y1="16.37" x2="28.36" y2="114.62" gradientUnits="userSpaceOnUse">
<stop stop-color="#7790E2"/>
<stop offset="1" stop-color="#486DDC"/>
</linearGradient>
<clipPath id="clip0_546_970">
<rect width="113.44" height="130.99" fill="white"/>
</clipPath>
</defs>
</svg>
