<svg xmlns="http://www.w3.org/2000/svg" viewBox="0 0 101.81 9.61"><defs><style>.cls-1{fill:#fff;}</style></defs><g id="Layer_2" data-name="Layer 2"><g id="Layer_1-2" data-name="Layer 1"><path class="cls-1" d="M8.22,6.64h.14L8.2,8.29A4.25,4.25,0,0,1,4.8,9.61,4.5,4.5,0,0,1,0,4.8,4.49,4.49,0,0,1,4.8,0,4.33,4.33,0,0,1,8.2,1.32L8.36,3H8.22A3.37,3.37,0,0,0,5,.21C3,.21,1.32,1.89,1.32,4.8S3,9.4,5,9.4A3.37,3.37,0,0,0,8.22,6.64Z"/><path class="cls-1" d="M18.38,4.8c0,2.43-1.15,4.81-4.54,4.81S9.3,7.23,9.3,4.8,10.44,0,13.84,0,18.38,2.38,18.38,4.8Zm-1.32,0c0-3-1.24-4.59-3.22-4.59S10.62,1.89,10.62,4.8s1.24,4.6,3.22,4.6S17.06,7.77,17.06,4.8Z"/><path class="cls-1" d="M27.18.13V.28c-.85,0-.85.69-.85.69V9.59h-.14L20.17,1V8.61a.75.75,0,0,0,.85.71v.14H19.11V9.32c.85,0,.85-.7.85-.7V1a.75.75,0,0,0-.85-.71V.15h1.95a.29.29,0,0,1,.23.1l4.83,6.91V1s0-.69-.85-.69V.13Z"/><path class="cls-1" d="M34.53,7.08c0,1.62-1.28,2.53-3.36,2.53a3.92,3.92,0,0,1-3-1.23L28,6.76h.15c.5,2.06,1.69,2.64,3.07,2.64s2.21-.76,2.21-1.79c0-1.25-1.62-1.82-2.65-2.29-.85-.37-2.7-1-2.7-2.76C28.06,1,29.29,0,31.2,0A3.93,3.93,0,0,1,34,1.08l.18,1.65h-.15C33.69,1.11,32.81.21,31.23.21,30,.21,29.09.91,29.09,2s1.19,1.63,2.47,2.23C33.14,4.94,34.53,5.44,34.53,7.08Z"/><path class="cls-1" d="M42.42,1.41h-.14c-.11-.6-.39-1.06-1.1-1.06H39.36V8.94s0,.39.34.39v.13H37.79V9.33c.33,0,.33-.39.33-.39V.35H36.31c-.7,0-1,.46-1.1,1.06h-.15L35.19.13H42.3Z"/><path class="cls-1" d="M49.5,8.2h.14l-.13,1.26H43.16V9.33c.35,0,.35-.39.35-.39V.65s0-.37-.35-.37V.15h6.35l.13,1.26H49.5C49.39.81,49.1.35,48.39.35H44.75V4.53h2.86s.7,0,.7-.86h.14V5.59h-.14c0-.85-.7-.85-.7-.85H44.75V9.25h3.64C49.1,9.25,49.39,8.78,49.5,8.2Z"/><path class="cls-1" d="M57.25,8.2l-.13,1.26H50.77V9.33c.35,0,.35-.39.35-.39V.67s0-.39-.35-.39V.15h1.92V.28c-.33,0-.33.39-.33.39V9.26H56c.71,0,1-.48,1.11-1.06Z"/><path class="cls-1" d="M64.53,8.2,64.4,9.46H58.05V9.33c.35,0,.35-.39.35-.39V.67s0-.39-.35-.39V.15H60V.28c-.33,0-.33.39-.33.39V9.26h3.64c.71,0,1-.48,1.11-1.06Z"/><path class="cls-1" d="M73.75,9.33v.13h-2V9.33c.28,0,.36-.16.28-.36L70.79,6.12H67l-1.09,2.6c-.12.3,0,.61.5.61v.13H64.73V9.33a1,1,0,0,0,1-.64L69.35,0h.1l3.82,8.94C73.41,9.24,73.54,9.33,73.75,9.33ZM70.69,5.91,68.88,1.65,67.1,5.91Z"/><path class="cls-1" d="M80.19,1.41h-.13C79.94.81,79.66.35,79,.35H77.13V8.94s0,.39.35.39v.13H75.56V9.33c.33,0,.33-.39.33-.39V.35H74.08c-.7,0-1,.46-1.1,1.06h-.15L73,.13h7.1Z"/><path class="cls-1" d="M82.52.65V8.94s0,.39.33.39v.13H80.94V9.33c.34,0,.34-.39.34-.39V.65s0-.37-.34-.37V.13h1.91V.28C82.52.28,82.52.65,82.52.65Z"/><path class="cls-1" d="M93,4.8c0,2.43-1.15,4.81-4.54,4.81S83.93,7.23,83.93,4.8,85.08,0,88.47,0,93,2.38,93,4.8Zm-1.32,0c0-3-1.24-4.59-3.22-4.59S85.25,1.89,85.25,4.8s1.24,4.6,3.22,4.6S91.69,7.77,91.69,4.8Z"/><path class="cls-1" d="M101.81.13V.28C101,.28,101,1,101,1V9.59h-.14L94.8,1V8.61a.75.75,0,0,0,.85.71v.14H93.74V9.32c.85,0,.85-.7.85-.7V1a.75.75,0,0,0-.85-.71V.15h2a.29.29,0,0,1,.23.1l4.83,6.91V1s0-.69-.85-.69V.13Z"/><path class="cls-1" d="M13.9,4.46l.41.23v.47l-.4.23-.41-.23V4.69l.4-.23m0-.34-.14.08-.41.24-.15.08v.81l.15.09.41.23.15.08.14-.08.41-.24.15-.08V4.52l-.15-.09-.41-.23Z"/><path class="cls-1" d="M88.52,4.46l.41.23v.47l-.41.23-.4-.23V4.69l.4-.23m0-.34-.15.08-.4.24-.15.08v.81l.15.09.4.23.15.08.15-.08.41-.24.15-.08V4.52l-.15-.09-.41-.23Z"/></g></g></svg>